<?xml version="1.0" encoding="UTF-8" standalone="no"?>
<!DOCTYPE svg PUBLIC "-//W3C//DTD SVG 1.1//EN" "http://www.w3.org/Graphics/SVG/1.1/DTD/svg11.dtd">
<svg xmlns="http://www.w3.org/2000/svg" version="1.1" viewBox="0.00 0.00 900.00 600.00">
<g stroke-width="2.00" fill="none" stroke-linecap="butt">
<path stroke="#e0bde3" vector-effect="non-scaling-stroke" d="
  M 900.00 83.15
  Q 866.90 81.46 833.75 79.88
  Q 792.49 77.92 733.69 71.28
  C 717.66 69.47 701.72 68.06 685.75 66.39
  Q 670.88 64.84 646.26 64.15
  C 631.51 63.74 612.59 63.74 600.75 64.35
  C 582.26 65.32 563.94 66.11 545.28 67.29
  Q 488.50 70.87 431.60 71.34
  C 430.71 71.35 429.74 71.55 428.76 71.56
  C 401.50 71.90 374.40 72.31 347.00 73.08
  Q 331.84 73.51 316.68 73.33
  Q 316.54 73.33 316.34 73.25
  Q 316.17 73.19 316.00 73.19
  C 283.71 73.33 251.53 70.28 219.79 64.33
  Q 199.99 60.62 180.17 56.98
  C 170.23 55.15 160.33 53.78 150.38 52.35
  C 121.57 48.24 85.59 48.62 53.50 52.13
  Q 26.67 55.06 0.00 59.21"
/>
<path stroke="#d9b0dd" vector-effect="non-scaling-stroke" d="
  M 900.00 141.74
  L 899.64 143.25
  Q 899.52 143.72 899.07 143.91
  C 897.98 144.36 896.76 144.66 895.74 145.18
  C 878.93 153.84 862.24 162.26 844.94 169.91
  C 815.48 182.94 781.06 191.98 749.26 188.47
  C 718.13 185.04 689.83 175.66 658.98 167.83
  C 617.56 157.33 575.11 154.70 532.25 156.34
  C 482.74 158.23 438.73 162.42 386.63 163.88
  C 371.47 164.30 355.87 163.86 340.50 163.73
  Q 326.08 163.62 300.98 160.62
  Q 270.29 156.96 240.56 148.54
  Q 217.87 142.11 195.27 135.34
  Q 175.73 129.49 155.79 125.23
  C 115.80 116.67 77.94 119.70 37.75 128.21
  Q 26.76 130.53 0.00 137.12"
/>
<path stroke="#d1a5d7" vector-effect="non-scaling-stroke" d="
  M 900.00 286.61
  Q 878.81 300.36 865.84 307.60
  C 838.97 322.61 811.01 335.82 780.05 338.50
  Q 769.25 339.44 762.28 338.70
  Q 737.74 336.11 711.61 326.97
  C 693.88 320.78 676.05 314.27 658.00 309.83
  Q 639.64 305.32 619.25 305.61
  C 590.58 306.03 566.39 309.93 539.76 310.45
  C 516.21 310.91 494.87 306.08 473.50 298.54
  C 451.91 290.93 425.60 279.40 401.74 272.78
  C 377.93 266.16 353.89 265.16 329.25 266.16
  Q 294.58 267.57 279.50 266.94
  Q 252.31 265.82 231.64 259.89
  Q 190.69 248.13 177.37 244.38
  C 159.86 239.45 140.75 236.37 122.51 237.17
  C 95.53 238.36 69.52 247.48 45.12 258.40
  C 30.28 265.05 14.92 273.31 0.00 281.04"
/>
<path stroke="#c898cd" vector-effect="non-scaling-stroke" d="
  M 900.00 330.88
  L 899.72 329.85
  Q 899.58 329.35 899.19 329.69
  C 866.78 358.51 831.13 392.72 787.48 407.75
  C 749.35 420.88 711.98 407.37 676.08 394.29
  Q 648.84 384.37 620.37 379.35
  C 597.36 375.29 574.75 374.29 547.00 372.07
  Q 516.98 369.68 483.29 361.61
  C 456.04 355.09 427.84 347.06 401.00 342.91
  C 385.42 340.50 369.26 339.68 352.26 339.80
  C 316.93 340.07 282.01 342.22 247.78 331.20
  Q 234.29 326.85 230.30 325.18
  Q 204.10 314.21 195.04 310.22
  C 179.85 303.55 164.31 297.58 148.57 294.43
  C 133.11 291.33 117.99 291.24 102.76 294.66
  C 75.58 300.75 50.25 314.30 26.90 329.38
  Q 13.03 338.34 0.00 347.33"
/>
<path stroke="#c898cd" vector-effect="non-scaling-stroke" d="
  M 900.00 381.81
  L 900.00 509.37"
/>
<path stroke="#be8cc4" vector-effect="non-scaling-stroke" d="
  M 900.00 532.95
  Q 860.85 536.97 844.00 537.94
  Q 826.63 538.93 809.25 539.41
  C 758.14 540.80 711.93 533.53 657.25 525.79
  Q 610.90 519.22 556.99 518.46
  C 521.65 517.96 496.85 519.94 457.49 522.54
  C 449.68 523.06 441.51 523.13 433.50 523.42
  C 398.54 524.70 363.78 518.50 331.26 508.45
  C 303.70 499.93 276.09 491.09 247.90 484.86
  Q 230.15 480.94 206.72 478.73
  C 172.22 475.47 140.21 476.88 105.74 481.64
  Q 83.55 484.71 52.93 490.93
  Q 42.06 493.14 0.00 502.97"
/>
</g>
<path fill="#e4c5e6" d="
  M 0.00 0.00
  L 900.00 0.00
  L 900.00 83.15
  Q 866.90 81.46 833.75 79.88
  Q 792.49 77.92 733.69 71.28
  C 717.66 69.47 701.72 68.06 685.75 66.39
  Q 670.88 64.84 646.26 64.15
  C 631.51 63.74 612.59 63.74 600.75 64.35
  C 582.26 65.32 563.94 66.11 545.28 67.29
  Q 488.50 70.87 431.60 71.34
  C 430.71 71.35 429.74 71.55 428.76 71.56
  C 401.50 71.90 374.40 72.31 347.00 73.08
  Q 331.84 73.51 316.68 73.33
  Q 316.54 73.33 316.34 73.25
  Q 316.17 73.19 316.00 73.19
  C 283.71 73.33 251.53 70.28 219.79 64.33
  Q 199.99 60.62 180.17 56.98
  C 170.23 55.15 160.33 53.78 150.38 52.35
  C 121.57 48.24 85.59 48.62 53.50 52.13
  Q 26.67 55.06 0.00 59.21
  L 0.00 0.00
  Z"
/>
<path fill="#dbb4df" d="
  M 900.00 83.15
  L 900.00 141.74
  L 899.64 143.25
  Q 899.52 143.72 899.07 143.91
  C 897.98 144.36 896.76 144.66 895.74 145.18
  C 878.93 153.84 862.24 162.26 844.94 169.91
  C 815.48 182.94 781.06 191.98 749.26 188.47
  C 718.13 185.04 689.83 175.66 658.98 167.83
  C 617.56 157.33 575.11 154.70 532.25 156.34
  C 482.74 158.23 438.73 162.42 386.63 163.88
  C 371.47 164.30 355.87 163.86 340.50 163.73
  Q 326.08 163.62 300.98 160.62
  Q 270.29 156.96 240.56 148.54
  Q 217.87 142.11 195.27 135.34
  Q 175.73 129.49 155.79 125.23
  C 115.80 116.67 77.94 119.70 37.75 128.21
  Q 26.76 130.53 0.00 137.12
  L 0.00 59.21
  Q 26.67 55.06 53.50 52.13
  C 85.59 48.62 121.57 48.24 150.38 52.35
  C 160.33 53.78 170.23 55.15 180.17 56.98
  Q 199.99 60.62 219.79 64.33
  C 251.53 70.28 283.71 73.33 316.00 73.19
  Q 316.17 73.19 316.34 73.25
  Q 316.54 73.33 316.68 73.33
  Q 331.84 73.51 347.00 73.08
  C 374.40 72.31 401.50 71.90 428.76 71.56
  C 429.74 71.55 430.71 71.35 431.60 71.34
  Q 488.50 70.87 545.28 67.29
  C 563.94 66.11 582.26 65.32 600.75 64.35
  C 612.59 63.74 631.51 63.74 646.26 64.15
  Q 670.88 64.84 685.75 66.39
  C 701.72 68.06 717.66 69.47 733.69 71.28
  Q 792.49 77.92 833.75 79.88
  Q 866.90 81.46 900.00 83.15
  Z"
/>
<path fill="#d6abdb" d="
  M 900.00 141.74
  L 900.00 286.61
  Q 878.81 300.36 865.84 307.60
  C 838.97 322.61 811.01 335.82 780.05 338.50
  Q 769.25 339.44 762.28 338.70
  Q 737.74 336.11 711.61 326.97
  C 693.88 320.78 676.05 314.27 658.00 309.83
  Q 639.64 305.32 619.25 305.61
  C 590.58 306.03 566.39 309.93 539.76 310.45
  C 516.21 310.91 494.87 306.08 473.50 298.54
  C 451.91 290.93 425.60 279.40 401.74 272.78
  C 377.93 266.16 353.89 265.16 329.25 266.16
  Q 294.58 267.57 279.50 266.94
  Q 252.31 265.82 231.64 259.89
  Q 190.69 248.13 177.37 244.38
  C 159.86 239.45 140.75 236.37 122.51 237.17
  C 95.53 238.36 69.52 247.48 45.12 258.40
  C 30.28 265.05 14.92 273.31 0.00 281.04
  L 0.00 137.12
  Q 26.76 130.53 37.75 128.21
  C 77.94 119.70 115.80 116.67 155.79 125.23
  Q 175.73 129.49 195.27 135.34
  Q 217.87 142.11 240.56 148.54
  Q 270.29 156.96 300.98 160.62
  Q 326.08 163.62 340.50 163.73
  C 355.87 163.86 371.47 164.30 386.63 163.88
  C 438.73 162.42 482.74 158.23 532.25 156.34
  C 575.11 154.70 617.56 157.33 658.98 167.83
  C 689.83 175.66 718.13 185.04 749.26 188.47
  C 781.06 191.98 815.48 182.94 844.94 169.91
  C 862.24 162.26 878.93 153.84 895.74 145.18
  C 896.76 144.66 897.98 144.36 899.07 143.91
  Q 899.52 143.72 899.64 143.25
  L 900.00 141.74
  Z"
/>
<path fill="#cc9ed2" d="
  M 900.00 286.61
  L 900.00 330.88
  L 899.72 329.85
  Q 899.58 329.35 899.19 329.69
  C 866.78 358.51 831.13 392.72 787.48 407.75
  C 749.35 420.88 711.98 407.37 676.08 394.29
  Q 648.84 384.37 620.37 379.35
  C 597.36 375.29 574.75 374.29 547.00 372.07
  Q 516.98 369.68 483.29 361.61
  C 456.04 355.09 427.84 347.06 401.00 342.91
  C 385.42 340.50 369.26 339.68 352.26 339.80
  C 316.93 340.07 282.01 342.22 247.78 331.20
  Q 234.29 326.85 230.30 325.18
  Q 204.10 314.21 195.04 310.22
  C 179.85 303.55 164.31 297.58 148.57 294.43
  C 133.11 291.33 117.99 291.24 102.76 294.66
  C 75.58 300.75 50.25 314.30 26.90 329.38
  Q 13.03 338.34 0.00 347.33
  L 0.00 281.04
  C 14.92 273.31 30.28 265.05 45.12 258.40
  C 69.52 247.48 95.53 238.36 122.51 237.17
  C 140.75 236.37 159.86 239.45 177.37 244.38
  Q 190.69 248.13 231.64 259.89
  Q 252.31 265.82 279.50 266.94
  Q 294.58 267.57 329.25 266.16
  C 353.89 265.16 377.93 266.16 401.74 272.78
  C 425.60 279.40 451.91 290.93 473.50 298.54
  C 494.87 306.08 516.21 310.91 539.76 310.45
  C 566.39 309.93 590.58 306.03 619.25 305.61
  Q 639.64 305.32 658.00 309.83
  C 676.05 314.27 693.88 320.78 711.61 326.97
  Q 737.74 336.11 762.28 338.70
  Q 769.25 339.44 780.05 338.50
  C 811.01 335.82 838.97 322.61 865.84 307.60
  Q 878.81 300.36 900.00 286.61
  Z"
/>
<path fill="#c392c8" d="
  M 900.00 330.88
  L 900.00 381.81
  L 900.00 509.37
  L 900.00 532.95
  Q 860.85 536.97 844.00 537.94
  Q 826.63 538.93 809.25 539.41
  C 758.14 540.80 711.93 533.53 657.25 525.79
  Q 610.90 519.22 556.99 518.46
  C 521.65 517.96 496.85 519.94 457.49 522.54
  C 449.68 523.06 441.51 523.13 433.50 523.42
  C 398.54 524.70 363.78 518.50 331.26 508.45
  C 303.70 499.93 276.09 491.09 247.90 484.86
  Q 230.15 480.94 206.72 478.73
  C 172.22 475.47 140.21 476.88 105.74 481.64
  Q 83.55 484.71 52.93 490.93
  Q 42.06 493.14 0.00 502.97
  L 0.00 347.33
  Q 13.03 338.34 26.90 329.38
  C 50.25 314.30 75.58 300.75 102.76 294.66
  C 117.99 291.24 133.11 291.33 148.57 294.43
  C 164.31 297.58 179.85 303.55 195.04 310.22
  Q 204.10 314.21 230.30 325.18
  Q 234.29 326.85 247.78 331.20
  C 282.01 342.22 316.93 340.07 352.26 339.80
  C 369.26 339.68 385.42 340.50 401.00 342.91
  C 427.84 347.06 456.04 355.09 483.29 361.61
  Q 516.98 369.68 547.00 372.07
  C 574.75 374.29 597.36 375.29 620.37 379.35
  Q 648.84 384.37 676.08 394.29
  C 711.98 407.37 749.35 420.88 787.48 407.75
  C 831.13 392.72 866.78 358.51 899.19 329.69
  Q 899.58 329.35 899.72 329.85
  L 900.00 330.88
  Z"
/>
<path fill="#cc9ed2" d="
  M 900.00 381.81
  L 900.00 509.37
  L 900.00 381.81
  Z"
/>
<path fill="#b985bf" d="
  M 900.00 532.95
  L 900.00 600.00
  L 0.00 600.00
  L 0.00 502.97
  Q 42.06 493.14 52.93 490.93
  Q 83.55 484.71 105.74 481.64
  C 140.21 476.88 172.22 475.47 206.72 478.73
  Q 230.15 480.94 247.90 484.86
  C 276.09 491.09 303.70 499.93 331.26 508.45
  C 363.78 518.50 398.54 524.70 433.50 523.42
  C 441.51 523.13 449.68 523.06 457.49 522.54
  C 496.85 519.94 521.65 517.96 556.99 518.46
  Q 610.90 519.22 657.25 525.79
  C 711.93 533.53 758.14 540.80 809.25 539.41
  Q 826.63 538.93 844.00 537.94
  Q 860.85 536.97 900.00 532.95
  Z"
/>
</svg>
