<?xml version="1.0" encoding="UTF-8" standalone="no"?>
<!DOCTYPE svg PUBLIC "-//W3C//DTD SVG 1.1//EN" "http://www.w3.org/Graphics/SVG/1.1/DTD/svg11.dtd">
<svg xmlns="http://www.w3.org/2000/svg" version="1.1" viewBox="0.00 0.00 625.00 468.00">
<g stroke-width="2.00" fill="none" stroke-linecap="butt">
<path stroke="#b6a89a" vector-effect="non-scaling-stroke" d="
  M 148.38 0.00
  Q 147.58 0.11 147.16 0.33
  Q 146.72 0.57 146.83 1.32
  C 149.53 19.40 158.86 31.85 177.78 34.41
  Q 181.20 34.87 183.56 34.38
  C 199.51 31.07 213.18 17.08 211.95 0.00"
/>
<path stroke="#b6a89a" vector-effect="non-scaling-stroke" d="
  M 410.31 0.00
  L 406.64 0.46
  A 0.72 0.72 0.0 0 0 406.03 1.00
  L 405.87 1.70
  Q 405.74 2.26 405.20 2.48
  C 392.18 7.86 381.19 21.34 383.70 35.99
  C 386.00 49.46 396.21 59.75 409.51 62.49
  C 422.64 65.20 435.88 56.88 441.78 45.81
  C 451.13 28.25 441.48 9.56 423.99 2.71
  A 1.28 1.25 88.6 0 1 423.30 2.04
  Q 422.39 0.00 419.62 0.00"
/>
<path stroke="#b6a89a" vector-effect="non-scaling-stroke" d="
  M 625.00 180.62
  C 614.76 180.83 608.04 181.52 600.35 188.10
  Q 592.61 194.73 592.10 206.24
  Q 591.96 209.32 591.77 212.34
  Q 591.74 212.81 591.93 213.12
  Q 592.20 213.57 592.59 213.65"
/>
<path stroke="#968980" vector-effect="non-scaling-stroke" d="
  M 592.59 213.65
  Q 593.03 214.76 593.28 214.37"
/>
<path stroke="#85c1a7" vector-effect="non-scaling-stroke" d="
  M 593.28 214.37
  L 592.93 215.35
  A 0.69 0.69 0.0 0 1 592.53 215.78
  C 572.80 223.98 552.63 223.16 531.74 223.11
  C 512.46 223.07 497.39 231.59 479.95 240.45
  Q 468.23 246.40 454.19 244.91
  C 447.25 244.18 441.15 241.61 435.37 237.87
  C 424.52 230.85 413.93 222.37 402.80 216.43
  C 381.64 205.16 360.50 213.54 341.83 225.10
  Q 328.92 233.09 315.84 240.78
  C 304.13 247.67 291.97 253.02 278.01 251.67
  C 259.55 249.87 243.62 239.34 225.51 233.98
  C 211.32 229.78 195.69 230.31 181.00 232.84
  Q 149.09 238.33 118.24 248.17
  C 106.55 251.90 94.72 255.86 82.74 257.49
  C 58.42 260.81 39.99 246.58 24.22 229.77
  Q 11.87 216.62 0.97 202.24
  Q 0.58 201.74 0.24 202.26
  L 0.00 202.63"
/>
<path stroke="#b6a89a" vector-effect="non-scaling-stroke" d="
  M 602.45 51.02
  C 597.85 38.08 582.99 27.56 569.13 32.07
  C 556.47 36.18 546.05 48.46 548.04 62.29
  C 549.80 74.46 559.48 83.58 571.27 86.40
  Q 574.88 87.27 577.25 86.92
  Q 595.89 84.22 602.27 66.66
  Q 605.17 58.68 602.45 51.02"
/>
<path stroke="#b6a89a" vector-effect="non-scaling-stroke" d="
  M 62.20 89.93
  C 74.73 84.67 85.26 69.35 80.98 55.53
  Q 75.21 36.87 56.62 32.75
  Q 51.94 31.72 47.34 32.73
  C 35.33 35.36 26.18 43.66 22.81 55.73
  C 19.13 68.88 27.51 82.51 38.47 88.32
  C 46.05 92.34 54.32 93.23 62.20 89.93"
/>
<path stroke="#b6a89a" vector-effect="non-scaling-stroke" d="
  M 426.47 129.74
  C 420.95 115.71 407.55 105.44 392.23 104.91
  C 370.29 104.16 350.45 127.36 355.72 148.75
  C 361.89 173.82 389.99 187.87 412.23 171.93
  C 425.72 162.27 432.61 145.39 426.47 129.74"
/>
<path stroke="#b6a89a" vector-effect="non-scaling-stroke" d="
  M 261.23 209.41
  C 287.36 203.95 301.39 173.73 283.38 151.80
  C 268.43 133.59 244.44 133.19 228.64 150.64
  C 211.19 169.89 219.84 196.76 241.88 206.87
  Q 251.74 211.39 261.23 209.41"
/>
<path stroke="#b6a89a" vector-effect="non-scaling-stroke" d="
  M 481.21 149.47
  Q 467.61 155.84 463.33 169.47
  C 457.73 187.33 470.63 204.29 487.70 208.20
  C 490.88 208.93 495.05 209.10 498.01 208.36
  Q 515.92 203.94 522.30 186.70
  C 531.16 162.75 503.74 138.91 481.21 149.47"
/>
<path stroke="#b6a89a" vector-effect="non-scaling-stroke" d="
  M 118.69 155.42
  C 108.50 160.74 101.30 172.28 105.13 183.75
  Q 109.87 197.94 125.54 201.42
  Q 128.70 202.12 130.99 201.65
  Q 147.19 198.38 152.03 182.69
  Q 154.19 175.70 151.34 169.20
  C 145.95 156.88 131.85 148.55 118.69 155.42"
/>
<path stroke="#4d321b" vector-effect="non-scaling-stroke" d="
  M 625.00 197.63
  Q 624.79 197.45 624.60 197.39
  Q 624.08 197.22 623.89 197.72
  Q 623.53 198.63 623.13 198.88
  Q 614.49 204.45 605.24 208.91
  C 602.44 210.26 596.26 210.48 592.59 213.65"
/>
<path stroke="#1c4b27" vector-effect="non-scaling-stroke" d="
  M 625.00 233.23
  Q 615.52 235.18 607.32 230.59
  C 604.41 228.96 598.05 223.63 596.90 221.06
  Q 595.34 217.59 593.28 214.37"
/>
<path stroke="#1c4b27" vector-effect="non-scaling-stroke" d="
  M 625.00 324.21
  Q 617.08 322.31 609.21 321.09
  C 578.28 316.32 549.55 350.63 559.11 380.12
  C 567.89 407.19 594.66 421.86 621.73 412.12
  A 1.36 1.33 36.2 0 1 622.29 412.04
  L 625.00 412.26"
/>
<path stroke="#1c4b27" vector-effect="non-scaling-stroke" d="
  M 443.70 468.00
  Q 446.08 460.20 448.66 452.49
  Q 451.60 443.74 449.22 432.25
  C 444.93 411.50 427.80 395.29 407.34 391.30
  Q 399.07 389.69 390.68 391.39
  C 367.37 396.09 351.12 414.58 348.28 438.01
  C 347.31 446.02 350.25 455.42 353.25 463.04
  Q 353.67 464.09 353.75 465.54
  Q 353.87 467.61 354.68 468.00"
/>
<path stroke="#1c4b27" vector-effect="non-scaling-stroke" d="
  M 228.76 468.00
  Q 230.28 462.38 232.93 456.87
  Q 234.98 452.61 235.66 449.72
  C 240.36 429.92 224.63 409.82 205.99 405.12
  C 186.36 400.17 166.32 414.71 161.09 433.20
  Q 156.74 448.57 166.45 463.31
  Q 167.89 465.49 167.99 468.00"
/>
<path stroke="#1c4b27" vector-effect="non-scaling-stroke" d="
  M 441.48 279.56
  C 445.82 268.42 438.81 256.54 428.93 250.56
  C 414.68 241.93 397.60 252.81 393.79 267.67
  Q 392.70 271.94 393.73 276.30
  Q 397.52 292.35 414.53 296.54
  Q 417.96 297.38 421.00 296.78
  Q 435.92 293.80 441.48 279.56"
/>
<path stroke="#1c4b27" vector-effect="non-scaling-stroke" d="
  M 61.21 295.39
  C 40.39 299.33 27.73 322.41 42.04 340.43
  C 48.86 349.01 58.96 354.44 70.16 351.87
  Q 76.26 350.47 80.24 347.22
  C 90.80 338.63 96.79 326.64 90.72 313.29
  C 86.14 303.23 73.57 293.06 61.21 295.39"
/>
<path stroke="#1c4b27" vector-effect="non-scaling-stroke" d="
  M 336.88 375.52
  C 341.40 357.13 327.65 338.69 310.70 333.46
  C 281.89 324.57 254.61 357.25 268.74 383.84
  C 276.27 398.00 292.18 408.00 308.47 403.92
  C 322.61 400.38 333.38 389.78 336.88 375.52"
/>
</g>
<path fill="#ffffff" d="
  M 0.00 0.00
  L 148.38 0.00
  Q 147.58 0.11 147.16 0.33
  Q 146.72 0.57 146.83 1.32
  C 149.53 19.40 158.86 31.85 177.78 34.41
  Q 181.20 34.87 183.56 34.38
  C 199.51 31.07 213.18 17.08 211.95 0.00
  L 410.31 0.00
  L 406.64 0.46
  A 0.72 0.72 0.0 0 0 406.03 1.00
  L 405.87 1.70
  Q 405.74 2.26 405.20 2.48
  C 392.18 7.86 381.19 21.34 383.70 35.99
  C 386.00 49.46 396.21 59.75 409.51 62.49
  C 422.64 65.20 435.88 56.88 441.78 45.81
  C 451.13 28.25 441.48 9.56 423.99 2.71
  A 1.28 1.25 88.6 0 1 423.30 2.04
  Q 422.39 0.00 419.62 0.00
  L 625.00 0.00
  L 625.00 180.62
  C 614.76 180.83 608.04 181.52 600.35 188.10
  Q 592.61 194.73 592.10 206.24
  Q 591.96 209.32 591.77 212.34
  Q 591.74 212.81 591.93 213.12
  Q 592.20 213.57 592.59 213.65
  Q 593.03 214.76 593.28 214.37
  L 592.93 215.35
  A 0.69 0.69 0.0 0 1 592.53 215.78
  C 572.80 223.98 552.63 223.16 531.74 223.11
  C 512.46 223.07 497.39 231.59 479.95 240.45
  Q 468.23 246.40 454.19 244.91
  C 447.25 244.18 441.15 241.61 435.37 237.87
  C 424.52 230.85 413.93 222.37 402.80 216.43
  C 381.64 205.16 360.50 213.54 341.83 225.10
  Q 328.92 233.09 315.84 240.78
  C 304.13 247.67 291.97 253.02 278.01 251.67
  C 259.55 249.87 243.62 239.34 225.51 233.98
  C 211.32 229.78 195.69 230.31 181.00 232.84
  Q 149.09 238.33 118.24 248.17
  C 106.55 251.90 94.72 255.86 82.74 257.49
  C 58.42 260.81 39.99 246.58 24.22 229.77
  Q 11.87 216.62 0.97 202.24
  Q 0.58 201.74 0.24 202.26
  L 0.00 202.63
  L 0.00 0.00
  Z
  M 602.45 51.02
  C 597.85 38.08 582.99 27.56 569.13 32.07
  C 556.47 36.18 546.05 48.46 548.04 62.29
  C 549.80 74.46 559.48 83.58 571.27 86.40
  Q 574.88 87.27 577.25 86.92
  Q 595.89 84.22 602.27 66.66
  Q 605.17 58.68 602.45 51.02
  Z
  M 62.20 89.93
  C 74.73 84.67 85.26 69.35 80.98 55.53
  Q 75.21 36.87 56.62 32.75
  Q 51.94 31.72 47.34 32.73
  C 35.33 35.36 26.18 43.66 22.81 55.73
  C 19.13 68.88 27.51 82.51 38.47 88.32
  C 46.05 92.34 54.32 93.23 62.20 89.93
  Z
  M 426.47 129.74
  C 420.95 115.71 407.55 105.44 392.23 104.91
  C 370.29 104.16 350.45 127.36 355.72 148.75
  C 361.89 173.82 389.99 187.87 412.23 171.93
  C 425.72 162.27 432.61 145.39 426.47 129.74
  Z
  M 261.23 209.41
  C 287.36 203.95 301.39 173.73 283.38 151.80
  C 268.43 133.59 244.44 133.19 228.64 150.64
  C 211.19 169.89 219.84 196.76 241.88 206.87
  Q 251.74 211.39 261.23 209.41
  Z
  M 481.21 149.47
  Q 467.61 155.84 463.33 169.47
  C 457.73 187.33 470.63 204.29 487.70 208.20
  C 490.88 208.93 495.05 209.10 498.01 208.36
  Q 515.92 203.94 522.30 186.70
  C 531.16 162.75 503.74 138.91 481.21 149.47
  Z
  M 118.69 155.42
  C 108.50 160.74 101.30 172.28 105.13 183.75
  Q 109.87 197.94 125.54 201.42
  Q 128.70 202.12 130.99 201.65
  Q 147.19 198.38 152.03 182.69
  Q 154.19 175.70 151.34 169.20
  C 145.95 156.88 131.85 148.55 118.69 155.42
  Z"
/>
<path fill="#6c5135" d="
  M 148.38 0.00
  L 211.95 0.00
  C 213.18 17.08 199.51 31.07 183.56 34.38
  Q 181.20 34.87 177.78 34.41
  C 158.86 31.85 149.53 19.40 146.83 1.32
  Q 146.72 0.57 147.16 0.33
  Q 147.58 0.11 148.38 0.00
  Z"
/>
<path fill="#6c5135" d="
  M 410.31 0.00
  L 419.62 0.00
  Q 422.39 0.00 423.30 2.04
  A 1.28 1.25 88.6 0 0 423.99 2.71
  C 441.48 9.56 451.13 28.25 441.78 45.81
  C 435.88 56.88 422.64 65.20 409.51 62.49
  C 396.21 59.75 386.00 49.46 383.70 35.99
  C 381.19 21.34 392.18 7.86 405.20 2.48
  Q 405.74 2.26 405.87 1.70
  L 406.03 1.00
  A 0.72 0.72 0.0 0 1 406.64 0.46
  L 410.31 0.00
  Z"
/>
<path fill="#6c5135" d="
  M 569.13 32.07
  C 582.99 27.56 597.85 38.08 602.45 51.02
  Q 605.17 58.68 602.27 66.66
  Q 595.89 84.22 577.25 86.92
  Q 574.88 87.27 571.27 86.40
  C 559.48 83.58 549.80 74.46 548.04 62.29
  C 546.05 48.46 556.47 36.18 569.13 32.07
  Z"
/>
<path fill="#6c5135" d="
  M 80.98 55.53
  C 85.26 69.35 74.73 84.67 62.20 89.93
  C 54.32 93.23 46.05 92.34 38.47 88.32
  C 27.51 82.51 19.13 68.88 22.81 55.73
  C 26.18 43.66 35.33 35.36 47.34 32.73
  Q 51.94 31.72 56.62 32.75
  Q 75.21 36.87 80.98 55.53
  Z"
/>
<path fill="#6c5135" d="
  M 392.23 104.91
  C 407.55 105.44 420.95 115.71 426.47 129.74
  C 432.61 145.39 425.72 162.27 412.23 171.93
  C 389.99 187.87 361.89 173.82 355.72 148.75
  C 350.45 127.36 370.29 104.16 392.23 104.91
  Z"
/>
<path fill="#6c5135" d="
  M 283.38 151.80
  C 301.39 173.73 287.36 203.95 261.23 209.41
  Q 251.74 211.39 241.88 206.87
  C 219.84 196.76 211.19 169.89 228.64 150.64
  C 244.44 133.19 268.43 133.59 283.38 151.80
  Z"
/>
<path fill="#6c5135" d="
  M 481.21 149.47
  C 503.74 138.91 531.16 162.75 522.30 186.70
  Q 515.92 203.94 498.01 208.36
  C 495.05 209.10 490.88 208.93 487.70 208.20
  C 470.63 204.29 457.73 187.33 463.33 169.47
  Q 467.61 155.84 481.21 149.47
  Z"
/>
<path fill="#6c5135" d="
  M 118.69 155.42
  C 131.85 148.55 145.95 156.88 151.34 169.20
  Q 154.19 175.70 152.03 182.69
  Q 147.19 198.38 130.99 201.65
  Q 128.70 202.12 125.54 201.42
  Q 109.87 197.94 105.13 183.75
  C 101.30 172.28 108.50 160.74 118.69 155.42
  Z"
/>
<path fill="#6c5135" d="
  M 625.00 180.62
  L 625.00 197.63
  Q 624.79 197.45 624.60 197.39
  Q 624.08 197.22 623.89 197.72
  Q 623.53 198.63 623.13 198.88
  Q 614.49 204.45 605.24 208.91
  C 602.44 210.26 596.26 210.48 592.59 213.65
  Q 592.20 213.57 591.93 213.12
  Q 591.74 212.81 591.77 212.34
  Q 591.96 209.32 592.10 206.24
  Q 592.61 194.73 600.35 188.10
  C 608.04 181.52 614.76 180.83 625.00 180.62
  Z"
/>
<path fill="#2d1300" d="
  M 625.00 197.63
  L 625.00 233.23
  Q 615.52 235.18 607.32 230.59
  C 604.41 228.96 598.05 223.63 596.90 221.06
  Q 595.34 217.59 593.28 214.37
  Q 593.03 214.76 592.59 213.65
  C 596.26 210.48 602.44 210.26 605.24 208.91
  Q 614.49 204.45 623.13 198.88
  Q 623.53 198.63 623.89 197.72
  Q 624.08 197.22 624.60 197.39
  Q 624.79 197.45 625.00 197.63
  Z"
/>
<path fill="#0a824e" d="
  M 593.28 214.37
  Q 595.34 217.59 596.90 221.06
  C 598.05 223.63 604.41 228.96 607.32 230.59
  Q 615.52 235.18 625.00 233.23
  L 625.00 324.21
  Q 617.08 322.31 609.21 321.09
  C 578.28 316.32 549.55 350.63 559.11 380.12
  C 567.89 407.19 594.66 421.86 621.73 412.12
  A 1.36 1.33 36.2 0 1 622.29 412.04
  L 625.00 412.26
  L 625.00 468.00
  L 443.70 468.00
  Q 446.08 460.20 448.66 452.49
  Q 451.60 443.74 449.22 432.25
  C 444.93 411.50 427.80 395.29 407.34 391.30
  Q 399.07 389.69 390.68 391.39
  C 367.37 396.09 351.12 414.58 348.28 438.01
  C 347.31 446.02 350.25 455.42 353.25 463.04
  Q 353.67 464.09 353.75 465.54
  Q 353.87 467.61 354.68 468.00
  L 228.76 468.00
  Q 230.28 462.38 232.93 456.87
  Q 234.98 452.61 235.66 449.72
  C 240.36 429.92 224.63 409.82 205.99 405.12
  C 186.36 400.17 166.32 414.71 161.09 433.20
  Q 156.74 448.57 166.45 463.31
  Q 167.89 465.49 167.99 468.00
  L 0.00 468.00
  L 0.00 202.63
  L 0.24 202.26
  Q 0.58 201.74 0.97 202.24
  Q 11.87 216.62 24.22 229.77
  C 39.99 246.58 58.42 260.81 82.74 257.49
  C 94.72 255.86 106.55 251.90 118.24 248.17
  Q 149.09 238.33 181.00 232.84
  C 195.69 230.31 211.32 229.78 225.51 233.98
  C 243.62 239.34 259.55 249.87 278.01 251.67
  C 291.97 253.02 304.13 247.67 315.84 240.78
  Q 328.92 233.09 341.83 225.10
  C 360.50 213.54 381.64 205.16 402.80 216.43
  C 413.93 222.37 424.52 230.85 435.37 237.87
  C 441.15 241.61 447.25 244.18 454.19 244.91
  Q 468.23 246.40 479.95 240.45
  C 497.39 231.59 512.46 223.07 531.74 223.11
  C 552.63 223.16 572.80 223.98 592.53 215.78
  A 0.69 0.69 0.0 0 0 592.93 215.35
  L 593.28 214.37
  Z
  M 441.48 279.56
  C 445.82 268.42 438.81 256.54 428.93 250.56
  C 414.68 241.93 397.60 252.81 393.79 267.67
  Q 392.70 271.94 393.73 276.30
  Q 397.52 292.35 414.53 296.54
  Q 417.96 297.38 421.00 296.78
  Q 435.92 293.80 441.48 279.56
  Z
  M 61.21 295.39
  C 40.39 299.33 27.73 322.41 42.04 340.43
  C 48.86 349.01 58.96 354.44 70.16 351.87
  Q 76.26 350.47 80.24 347.22
  C 90.80 338.63 96.79 326.64 90.72 313.29
  C 86.14 303.23 73.57 293.06 61.21 295.39
  Z
  M 336.88 375.52
  C 341.40 357.13 327.65 338.69 310.70 333.46
  C 281.89 324.57 254.61 357.25 268.74 383.84
  C 276.27 398.00 292.18 408.00 308.47 403.92
  C 322.61 400.38 333.38 389.78 336.88 375.52
  Z"
/>
<path fill="#2d1300" d="
  M 428.93 250.56
  C 438.81 256.54 445.82 268.42 441.48 279.56
  Q 435.92 293.80 421.00 296.78
  Q 417.96 297.38 414.53 296.54
  Q 397.52 292.35 393.73 276.30
  Q 392.70 271.94 393.79 267.67
  C 397.60 252.81 414.68 241.93 428.93 250.56
  Z"
/>
<path fill="#2d1300" d="
  M 42.04 340.43
  C 27.73 322.41 40.39 299.33 61.21 295.39
  C 73.57 293.06 86.14 303.23 90.72 313.29
  C 96.79 326.64 90.80 338.63 80.24 347.22
  Q 76.26 350.47 70.16 351.87
  C 58.96 354.44 48.86 349.01 42.04 340.43
  Z"
/>
<path fill="#2d1300" d="
  M 625.00 324.21
  L 625.00 412.26
  L 622.29 412.04
  A 1.36 1.33 36.2 0 0 621.73 412.12
  C 594.66 421.86 567.89 407.19 559.11 380.12
  C 549.55 350.63 578.28 316.32 609.21 321.09
  Q 617.08 322.31 625.00 324.21
  Z"
/>
<path fill="#2d1300" d="
  M 310.70 333.46
  C 327.65 338.69 341.40 357.13 336.88 375.52
  C 333.38 389.78 322.61 400.38 308.47 403.92
  C 292.18 408.00 276.27 398.00 268.74 383.84
  C 254.61 357.25 281.89 324.57 310.70 333.46
  Z"
/>
<path fill="#2d1300" d="
  M 443.70 468.00
  L 354.68 468.00
  Q 353.87 467.61 353.75 465.54
  Q 353.67 464.09 353.25 463.04
  C 350.25 455.42 347.31 446.02 348.28 438.01
  C 351.12 414.58 367.37 396.09 390.68 391.39
  Q 399.07 389.69 407.34 391.30
  C 427.80 395.29 444.93 411.50 449.22 432.25
  Q 451.60 443.74 448.66 452.49
  Q 446.08 460.20 443.70 468.00
  Z"
/>
<path fill="#2d1300" d="
  M 228.76 468.00
  L 167.99 468.00
  Q 167.89 465.49 166.45 463.31
  Q 156.74 448.57 161.09 433.20
  C 166.32 414.71 186.36 400.17 205.99 405.12
  C 224.63 409.82 240.36 429.92 235.66 449.72
  Q 234.98 452.61 232.93 456.87
  Q 230.28 462.38 228.76 468.00
  Z"
/>
</svg>
