<?xml version="1.0" encoding="UTF-8" standalone="no"?>
<!DOCTYPE svg PUBLIC "-//W3C//DTD SVG 1.1//EN" "http://www.w3.org/Graphics/SVG/1.1/DTD/svg11.dtd">
<svg xmlns="http://www.w3.org/2000/svg" version="1.1" viewBox="0.00 0.00 1446.00 1449.00">
<g stroke-width="2.00" fill="none" stroke-linecap="butt">
<path stroke="#80b69b" vector-effect="non-scaling-stroke" d="
  M 580.80 621.05
  C 598.20 619.32 616.04 611.33 627.87 598.13
  C 643.32 580.91 645.24 555.96 632.66 536.59
  Q 625.31 525.27 613.86 516.76
  C 611.98 515.37 610.51 512.84 613.10 511.34
  Q 627.01 503.30 640.60 495.41
  A 1.44 1.43 -27.2 0 0 641.19 493.59
  Q 627.60 462.77 606.27 436.72
  A 1.68 1.67 -43.6 0 1 606.33 434.52
  C 613.46 426.72 619.17 415.26 616.51 404.44
  C 613.00 390.15 596.50 380.40 582.34 383.46
  C 567.44 386.67 557.61 399.55 556.00 414.63
  Q 554.32 430.32 558.20 449.75
  Q 563.22 474.88 573.75 498.25
  A 1.47 1.46 78.1 0 1 572.41 500.32
  Q 539.82 500.14 507.00 502.79
  C 498.49 503.48 493.54 501.34 486.34 497.21
  C 482.93 495.24 480.70 496.01 480.32 500.19
  Q 477.80 528.47 482.98 560.73
  Q 489.57 601.70 516.95 632.48
  A 1.08 1.08 0.0 0 1 516.74 634.10
  C 514.31 635.72 512.80 635.17 510.87 633.10
  C 469.14 588.41 465.86 519.27 474.97 462.28
  C 476.40 453.28 484.36 447.61 487.07 439.34
  C 489.85 430.85 488.39 420.07 480.86 414.65
  C 463.73 402.30 441.17 405.80 427.45 421.46
  C 418.67 431.48 414.42 443.80 413.09 457.00
  C 399.85 587.83 445.45 715.96 564.49 782.25
  C 631.34 819.48 711.45 828.13 786.26 816.72
  C 867.70 804.29 935.40 762.07 978.69 691.70
  C 991.81 670.38 1000.32 647.07 1003.52 622.26
  C 1004.92 611.41 1005.98 600.72 1009.08 590.16
  Q 1011.86 580.72 1014.37 571.23
  Q 1029.99 512.26 1021.63 451.74
  C 1018.20 426.92 1010.45 391.21 976.74 395.80
  C 960.16 398.06 947.34 412.28 951.55 429.14
  C 953.39 436.50 959.22 445.82 963.37 453.45
  C 969.03 463.84 968.31 471.69 967.45 484.54
  Q 963.93 537.32 938.77 583.84
  Q 936.76 587.56 935.11 588.65
  Q 932.09 590.64 928.31 588.45
  C 872.31 555.94 810.72 560.93 756.60 593.57
  Q 745.35 600.35 741.30 601.97
  C 717.66 611.41 689.99 603.83 674.23 583.87
  C 661.94 568.30 658.65 548.21 654.62 529.43
  Q 654.33 528.06 653.42 527.44
  A 1.37 1.37 0.0 0 0 651.50 527.81
  C 649.17 531.33 642.91 541.31 643.84 545.38
  Q 644.91 550.08 646.04 554.80
  C 655.79 595.45 616.45 623.18 581.33 627.55
  Q 579.93 627.73 579.83 626.31
  L 579.56 622.53
  Q 579.46 621.18 580.80 621.05"
/>
<path stroke="#80b69b" vector-effect="non-scaling-stroke" d="
  M 624.67 510.86
  A 3.38 3.38 0.0 0 0 623.46 516.14
  L 637.33 532.47
  A 3.38 3.38 0.0 0 0 642.99 531.65
  L 655.42 503.67
  A 3.38 3.38 0.0 0 0 650.96 499.20
  L 624.67 510.86"
/>
<path stroke="#80b69b" vector-effect="non-scaling-stroke" d="
  M 766.3847 1064.4677
  A 80.49 75.81 89.0 0 0 840.7785 982.6669
  A 80.49 75.81 89.0 0 0 763.5753 903.5123
  A 80.49 75.81 89.0 0 0 689.1815 985.3131
  A 80.49 75.81 89.0 0 0 766.3847 1064.4677"
/>
<path stroke="#80b69b" vector-effect="non-scaling-stroke" d="
  M 885.19 973.82
  Q 898.17 1008.93 910.13 1047.47
  C 915.34 1064.23 934.32 1063.93 943.26 1050.75
  Q 945.45 1047.52 948.17 1038.82
  Q 958.93 1004.33 971.14 970.32
  Q 971.34 969.75 971.71 969.58
  Q 972.44 969.26 973.04 970.24
  A 1.81 1.75 -66.7 0 1 973.28 970.87
  Q 979.71 1009.72 986.66 1048.73
  C 988.60 1059.65 994.93 1062.76 1005.50 1059.74
  Q 1016.14 1056.70 1014.45 1045.51
  Q 1005.30 984.88 994.67 924.50
  Q 993.22 916.25 986.58 911.19
  C 979.04 905.44 968.15 905.81 962.33 913.34
  Q 960.38 915.87 957.51 924.07
  Q 942.70 966.30 928.82 1008.94
  A 0.78 0.78 0.0 0 1 927.60 1009.32
  Q 926.91 1008.78 926.60 1007.89
  Q 912.64 968.05 899.69 927.86
  Q 897.44 920.87 895.98 918.24
  C 890.67 908.64 878.51 902.58 869.14 910.28
  C 864.12 914.41 861.65 920.33 860.51 926.75
  Q 849.05 991.22 840.88 1040.48
  C 839.45 1049.08 839.38 1057.51 849.23 1059.22
  C 861.36 1061.32 867.00 1058.47 869.16 1046.00
  Q 875.57 1008.95 881.47 974.17
  Q 882.68 967.02 885.19 973.82"
/>
<path stroke="#80b69b" vector-effect="non-scaling-stroke" d="
  M 653.63 1023.05
  Q 653.90 1023.37 654.10 1023.91
  Q 659.34 1037.53 664.51 1051.18
  C 666.51 1056.46 668.72 1060.26 674.25 1061.03
  Q 680.87 1061.95 687.21 1058.01
  Q 696.35 1052.33 692.52 1041.95
  Q 671.32 984.45 648.87 927.43
  C 645.99 920.12 640.26 911.08 632.84 908.17
  C 624.17 904.78 613.43 909.31 608.29 916.45
  Q 606.39 919.09 601.82 930.86
  Q 580.43 985.95 559.70 1041.30
  C 558.00 1045.83 557.46 1050.69 560.54 1054.23
  C 567.56 1062.28 582.12 1064.96 586.93 1052.66
  Q 589.23 1046.81 596.47 1026.73
  Q 597.96 1022.60 601.75 1022.57
  Q 627.02 1022.42 652.58 1022.57
  A 1.41 1.39 69.1 0 1 653.63 1023.05"
/>
<path stroke="#80b69b" vector-effect="non-scaling-stroke" d="
  M 1061.2583 921.7575
  A 14.44 14.44 0.0 0 0 1046.8435 907.2923
  L 1044.3435 907.2879
  A 14.44 14.44 0.0 0 0 1029.8783 921.7027
  L 1029.6617 1045.7825
  A 14.44 14.44 0.0 0 0 1044.0765 1060.2477
  L 1046.5765 1060.2521
  A 14.44 14.44 0.0 0 0 1061.0417 1045.8373
  L 1061.2583 921.7575"
/>
<path stroke="#80b69b" vector-effect="non-scaling-stroke" d="
  M 418.62 970.75
  A 0.81 0.78 85.8 0 1 419.21 971.28
  Q 430.49 1006.00 442.12 1040.29
  Q 444.58 1047.54 446.25 1050.21
  C 453.18 1061.28 468.67 1065.24 476.77 1052.80
  Q 478.45 1050.22 478.96 1048.68
  Q 492.05 1009.45 505.27 970.26
  Q 505.54 969.45 505.97 969.05
  A 0.60 0.60 0.0 0 1 506.96 969.32
  Q 507.64 971.58 508.01 973.74
  Q 514.30 1010.62 520.51 1047.51
  Q 521.25 1051.90 522.83 1054.92
  C 526.86 1062.58 537.91 1061.22 544.26 1057.92
  C 549.49 1055.20 549.84 1049.33 548.97 1044.07
  Q 539.39 986.30 529.95 928.50
  C 529.29 924.49 528.86 919.85 526.78 916.48
  C 520.82 906.85 506.56 904.22 497.79 912.03
  C 494.74 914.74 493.08 918.60 491.86 922.52
  Q 478.38 965.99 462.74 1008.74
  Q 462.35 1009.81 461.35 1009.36
  A 0.92 0.90 4.0 0 1 460.85 1008.80
  Q 448.04 969.62 435.07 930.35
  Q 431.32 919.01 430.03 916.85
  C 421.98 903.44 399.03 904.33 395.83 921.52
  Q 388.29 962.02 375.49 1039.54
  C 374.34 1046.48 372.52 1054.16 379.98 1058.30
  Q 385.05 1061.12 393.00 1060.27
  C 399.52 1059.57 401.93 1054.16 402.93 1048.49
  Q 409.65 1010.50 416.40 972.52
  Q 416.79 970.36 418.62 970.75"
/>
<path stroke="#80b69b" vector-effect="non-scaling-stroke" d="
  M 564.06 580.00
  A 1.05 1.05 0.0 0 1 562.41 579.58
  Q 560.70 575.29 560.03 571.68
  C 559.64 569.60 558.63 568.59 556.49 568.99
  C 553.12 569.61 552.42 576.00 551.55 578.79
  A 1.84 1.84 0.0 0 1 548.75 579.76
  L 542.48 575.44
  A 2.02 2.01 -53.1 0 0 539.77 575.83
  L 539.51 576.14
  Q 537.91 578.11 539.82 579.78
  L 545.74 584.97
  Q 548.43 587.33 545.23 588.93
  L 543.87 589.61
  Q 540.53 591.27 537.54 589.04
  Q 530.85 584.04 528.17 576.13
  Q 527.09 572.93 523.79 573.64
  L 523.01 573.80
  A 2.45 2.45 0.0 0 0 521.17 576.84
  C 523.57 585.60 530.47 595.15 539.59 596.66
  C 547.33 597.93 552.19 593.01 556.23 586.75
  A 1.40 1.40 0.0 0 1 558.41 586.54
  C 560.96 589.15 564.64 593.85 568.51 594.42
  C 581.40 596.32 590.74 590.84 593.77 577.92
  Q 594.46 574.98 591.80 573.53
  L 590.75 572.96
  Q 588.05 571.49 587.25 574.47
  C 585.35 581.56 577.85 593.08 569.31 586.90
  C 567.83 585.84 567.14 583.62 568.85 582.58
  C 571.60 580.89 577.07 577.03 575.48 573.76
  Q 575.22 573.23 574.63 573.19
  C 568.18 572.71 568.08 576.67 564.06 580.00"
/>
<path stroke="#80b69b" vector-effect="non-scaling-stroke" d="
  M 892.23 668.19
  A 0.41 0.40 15.4 0 1 891.56 668.57
  C 863.46 642.73 818.94 642.81 784.67 652.57
  Q 781.43 653.50 782.92 656.52
  L 783.04 656.78
  Q 784.66 660.06 788.18 659.08
  C 825.91 648.57 878.89 651.24 899.18 691.58
  Q 900.70 694.60 903.95 693.65
  L 904.59 693.46
  A 2.22 2.21 -17.4 0 0 906.07 690.65
  C 896.00 660.05 879.53 602.36 935.50 604.59
  C 943.11 604.89 959.10 610.34 953.17 621.26
  C 948.30 630.21 929.61 622.10 933.02 638.72
  Q 937.35 659.86 941.76 681.03
  Q 942.27 683.46 944.74 683.45
  L 947.49 683.45
  Q 949.81 683.45 949.34 681.17
  Q 944.93 659.88 940.77 638.56
  Q 940.08 635.04 942.98 634.50
  Q 951.44 632.94 956.51 628.00
  C 964.75 619.98 963.97 607.82 953.74 601.93
  C 941.52 594.88 924.19 595.22 911.56 601.08
  Q 891.50 610.39 888.87 632.51
  C 887.26 646.04 889.79 655.99 892.23 668.19"
/>
<path stroke="#80b69b" vector-effect="non-scaling-stroke" d="
  M 820.12 963.18
  C 816.80 950.15 809.23 939.71 797.68 932.70
  Q 796.93 932.25 796.44 932.98
  Q 795.55 934.30 795.45 935.88
  Q 795.41 936.40 795.80 936.75
  Q 808.55 948.02 815.90 963.36
  C 816.73 965.09 817.90 966.00 819.65 964.60
  Q 820.34 964.04 820.12 963.18"
/>
<path stroke="#ff8080" vector-effect="non-scaling-stroke" d="
  M 766.00 957.89
  Q 764.74 957.18 763.40 956.11
  C 748.46 944.12 727.53 946.59 720.48 966.22
  C 711.34 991.64 741.78 1016.69 758.95 1030.29
  C 762.41 1033.03 763.74 1034.97 767.70 1032.38
  C 785.33 1020.84 813.52 1000.23 814.26 977.57
  C 814.79 961.37 800.70 946.01 783.28 950.46
  Q 774.60 952.68 767.50 957.81
  A 1.40 1.39 41.7 0 1 766.00 957.89"
/>
<path stroke="#80b69b" vector-effect="non-scaling-stroke" d="
  M 715.47 1004.18
  Q 714.66 1002.12 712.69 1003.12
  L 711.60 1003.66
  A 1.99 1.99 0.0 0 0 710.58 1005.95
  C 713.67 1017.58 722.96 1028.41 732.83 1035.39
  Q 734.42 1036.51 735.56 1034.93
  L 735.85 1034.53
  A 1.60 1.59 -52.2 0 0 735.58 1032.38
  Q 721.97 1020.83 715.47 1004.18"
/>
<path stroke="#80b69b" vector-effect="non-scaling-stroke" d="
  M 941.93 1031.46
  L 926.98 1055.47
  A 0.14 0.14 0.0 0 0 927.03 1055.66
  L 927.10 1055.70
  A 14.16 6.20 -58.1 0 0 939.84 1046.96
  L 939.97 1046.75
  A 14.16 6.20 -58.1 0 0 942.19 1031.46
  L 942.12 1031.41
  A 0.14 0.14 0.0 0 0 941.93 1031.46"
/>
<path stroke="#80b69b" vector-effect="non-scaling-stroke" d="
  M 635.65 930.83
  C 638.65 937.12 638.98 945.95 645.56 949.90
  Q 646.69 950.58 647.42 949.78
  A 1.35 1.34 63.1 0 0 647.76 948.72
  C 646.58 938.02 641.19 920.50 629.45 916.78
  A 1.82 1.81 25.0 0 0 627.36 917.54
  C 625.33 920.78 630.14 923.89 632.38 925.63
  Q 633.65 926.62 635.65 930.83"
/>
<path stroke="#80b69b" vector-effect="non-scaling-stroke" d="
  M 610.87 988.65
  A 2.21 2.21 0.0 0 0 612.94 991.64
  L 639.18 991.64
  A 2.21 2.21 0.0 0 0 641.25 988.65
  L 628.13 953.56
  A 2.21 2.21 0.0 0 0 623.99 953.56
  L 610.87 988.65"
/>
<path stroke="#80b69b" vector-effect="non-scaling-stroke" d="
  M 1051.36 909.91
  L 1047.49 911.32
  A 1.14 1.14 0.0 0 0 1046.81 912.78
  L 1053.56 931.44
  A 3.29 3.09 70.1 0 0 1057.59 933.48
  L 1057.80 933.41
  A 3.29 3.09 70.1 0 0 1059.58 929.26
  L 1052.82 910.60
  A 1.14 1.14 0.0 0 0 1051.36 909.91"
/>
<path stroke="#80b69b" vector-effect="non-scaling-stroke" d="
  M 510.25 920.65
  C 517.47 924.18 518.90 930.32 519.89 937.50
  Q 519.96 938.08 520.53 938.22
  Q 522.03 938.61 523.57 938.47
  Q 524.17 938.41 524.24 937.81
  Q 526.19 921.61 511.82 914.98
  A 2.05 2.05 0.0 0 0 509.10 916.00
  L 508.81 916.66
  Q 507.60 919.35 510.25 920.65"
/>
</g>
<path fill="#006d37" d="
  M 460.46 1393.79
  Q 444.32 1386.98 427.58 1381.87
  C 424.71 1381.00 421.35 1377.78 418.29 1376.35
  Q 316.31 1328.93 232.07 1252.17
  Q 214.06 1235.75 202.96 1224.29
  C 111.44 1129.73 48.34 1014.28 18.57 886.20
  C 10.50 851.50 6.39 832.33 3.97 804.75
  C 3.28 796.87 3.69 789.07 3.19 781.26
  Q 2.87 776.36 2.88 772.25
  Q 2.94 750.75 4.24 727.74
  Q 4.91 715.90 5.11 707.76
  C 5.42 695.14 5.99 682.74 5.42 669.92
  C 4.83 656.37 5.57 643.79 6.69 629.45
  Q 7.48 619.37 9.01 609.61
  Q 19.52 542.51 42.32 478.46
  Q 55.43 441.62 77.11 397.85
  C 108.06 335.35 150.53 279.83 197.91 228.80
  Q 205.02 221.14 211.80 214.42
  C 267.21 159.49 331.68 113.31 402.08 79.45
  C 464.03 49.64 530.43 27.68 598.32 16.37
  Q 604.03 15.42 609.58 14.09
  C 628.19 9.63 648.90 8.09 668.75 8.10
  Q 716.11 8.14 763.48 8.12
  C 777.33 8.12 789.91 8.61 802.50 9.79
  Q 809.49 10.44 817.05 12.25
  C 834.64 16.45 848.00 18.15 867.78 20.92
  Q 872.94 21.64 879.04 23.40
  Q 885.08 25.14 894.01 27.39
  C 923.09 34.72 952.76 44.49 981.69 56.14
  C 993.41 60.86 1005.35 65.16 1016.49 70.67
  Q 1026.37 75.55 1036.24 80.47
  C 1207.26 165.65 1335.55 312.88 1397.30 493.29
  Q 1408.39 525.72 1417.99 564.01
  C 1423.67 586.69 1426.42 608.68 1429.77 631.22
  C 1430.46 635.89 1431.81 641.19 1432.74 646.22
  C 1433.64 651.06 1433.50 656.15 1433.66 661.09
  C 1434.06 673.76 1435.39 686.64 1435.53 697.25
  Q 1436.10 740.38 1435.77 758.50
  C 1435.70 762.40 1434.37 767.47 1434.17 771.91
  Q 1433.73 781.62 1433.04 788.75
  C 1417.14 952.55 1346.90 1108.51 1230.35 1225.70
  Q 1223.60 1232.49 1216.12 1239.77
  Q 1155.11 1299.18 1081.66 1342.32
  C 1071.67 1348.19 1056.39 1356.10 1044.12 1363.89
  Q 1042.78 1364.74 1041.34 1365.39
  Q 1022.26 1373.92 1003.10 1382.25
  Q 908.57 1423.34 806.36 1435.95
  Q 798.78 1436.89 789.24 1438.70
  Q 777.65 1440.90 772.00 1440.91
  Q 706.45 1441.03 665.87 1440.84
  C 661.29 1440.82 656.31 1440.52 651.41 1439.70
  Q 612.34 1433.16 573.05 1428.10
  C 565.81 1427.16 557.00 1423.59 549.90 1421.90
  C 519.43 1414.67 489.34 1405.97 460.46 1393.79
  Z
  M 580.80 621.05
  C 598.20 619.32 616.04 611.33 627.87 598.13
  C 643.32 580.91 645.24 555.96 632.66 536.59
  Q 625.31 525.27 613.86 516.76
  C 611.98 515.37 610.51 512.84 613.10 511.34
  Q 627.01 503.30 640.60 495.41
  A 1.44 1.43 -27.2 0 0 641.19 493.59
  Q 627.60 462.77 606.27 436.72
  A 1.68 1.67 -43.6 0 1 606.33 434.52
  C 613.46 426.72 619.17 415.26 616.51 404.44
  C 613.00 390.15 596.50 380.40 582.34 383.46
  C 567.44 386.67 557.61 399.55 556.00 414.63
  Q 554.32 430.32 558.20 449.75
  Q 563.22 474.88 573.75 498.25
  A 1.47 1.46 78.1 0 1 572.41 500.32
  Q 539.82 500.14 507.00 502.79
  C 498.49 503.48 493.54 501.34 486.34 497.21
  C 482.93 495.24 480.70 496.01 480.32 500.19
  Q 477.80 528.47 482.98 560.73
  Q 489.57 601.70 516.95 632.48
  A 1.08 1.08 0.0 0 1 516.74 634.10
  C 514.31 635.72 512.80 635.17 510.87 633.10
  C 469.14 588.41 465.86 519.27 474.97 462.28
  C 476.40 453.28 484.36 447.61 487.07 439.34
  C 489.85 430.85 488.39 420.07 480.86 414.65
  C 463.73 402.30 441.17 405.80 427.45 421.46
  C 418.67 431.48 414.42 443.80 413.09 457.00
  C 399.85 587.83 445.45 715.96 564.49 782.25
  C 631.34 819.48 711.45 828.13 786.26 816.72
  C 867.70 804.29 935.40 762.07 978.69 691.70
  C 991.81 670.38 1000.32 647.07 1003.52 622.26
  C 1004.92 611.41 1005.98 600.72 1009.08 590.16
  Q 1011.86 580.72 1014.37 571.23
  Q 1029.99 512.26 1021.63 451.74
  C 1018.20 426.92 1010.45 391.21 976.74 395.80
  C 960.16 398.06 947.34 412.28 951.55 429.14
  C 953.39 436.50 959.22 445.82 963.37 453.45
  C 969.03 463.84 968.31 471.69 967.45 484.54
  Q 963.93 537.32 938.77 583.84
  Q 936.76 587.56 935.11 588.65
  Q 932.09 590.64 928.31 588.45
  C 872.31 555.94 810.72 560.93 756.60 593.57
  Q 745.35 600.35 741.30 601.97
  C 717.66 611.41 689.99 603.83 674.23 583.87
  C 661.94 568.30 658.65 548.21 654.62 529.43
  Q 654.33 528.06 653.42 527.44
  A 1.37 1.37 0.0 0 0 651.50 527.81
  C 649.17 531.33 642.91 541.31 643.84 545.38
  Q 644.91 550.08 646.04 554.80
  C 655.79 595.45 616.45 623.18 581.33 627.55
  Q 579.93 627.73 579.83 626.31
  L 579.56 622.53
  Q 579.46 621.18 580.80 621.05
  Z
  M 624.67 510.86
  A 3.38 3.38 0.0 0 0 623.46 516.14
  L 637.33 532.47
  A 3.38 3.38 0.0 0 0 642.99 531.65
  L 655.42 503.67
  A 3.38 3.38 0.0 0 0 650.96 499.20
  L 624.67 510.86
  Z
  M 766.3847 1064.4677
  A 80.49 75.81 89.0 0 0 840.7785 982.6669
  A 80.49 75.81 89.0 0 0 763.5753 903.5123
  A 80.49 75.81 89.0 0 0 689.1815 985.3131
  A 80.49 75.81 89.0 0 0 766.3847 1064.4677
  Z
  M 885.19 973.82
  Q 898.17 1008.93 910.13 1047.47
  C 915.34 1064.23 934.32 1063.93 943.26 1050.75
  Q 945.45 1047.52 948.17 1038.82
  Q 958.93 1004.33 971.14 970.32
  Q 971.34 969.75 971.71 969.58
  Q 972.44 969.26 973.04 970.24
  A 1.81 1.75 -66.7 0 1 973.28 970.87
  Q 979.71 1009.72 986.66 1048.73
  C 988.60 1059.65 994.93 1062.76 1005.50 1059.74
  Q 1016.14 1056.70 1014.45 1045.51
  Q 1005.30 984.88 994.67 924.50
  Q 993.22 916.25 986.58 911.19
  C 979.04 905.44 968.15 905.81 962.33 913.34
  Q 960.38 915.87 957.51 924.07
  Q 942.70 966.30 928.82 1008.94
  A 0.78 0.78 0.0 0 1 927.60 1009.32
  Q 926.91 1008.78 926.60 1007.89
  Q 912.64 968.05 899.69 927.86
  Q 897.44 920.87 895.98 918.24
  C 890.67 908.64 878.51 902.58 869.14 910.28
  C 864.12 914.41 861.65 920.33 860.51 926.75
  Q 849.05 991.22 840.88 1040.48
  C 839.45 1049.08 839.38 1057.51 849.23 1059.22
  C 861.36 1061.32 867.00 1058.47 869.16 1046.00
  Q 875.57 1008.95 881.47 974.17
  Q 882.68 967.02 885.19 973.82
  Z
  M 653.63 1023.05
  Q 653.90 1023.37 654.10 1023.91
  Q 659.34 1037.53 664.51 1051.18
  C 666.51 1056.46 668.72 1060.26 674.25 1061.03
  Q 680.87 1061.95 687.21 1058.01
  Q 696.35 1052.33 692.52 1041.95
  Q 671.32 984.45 648.87 927.43
  C 645.99 920.12 640.26 911.08 632.84 908.17
  C 624.17 904.78 613.43 909.31 608.29 916.45
  Q 606.39 919.09 601.82 930.86
  Q 580.43 985.95 559.70 1041.30
  C 558.00 1045.83 557.46 1050.69 560.54 1054.23
  C 567.56 1062.28 582.12 1064.96 586.93 1052.66
  Q 589.23 1046.81 596.47 1026.73
  Q 597.96 1022.60 601.75 1022.57
  Q 627.02 1022.42 652.58 1022.57
  A 1.41 1.39 69.1 0 1 653.63 1023.05
  Z
  M 1061.2583 921.7575
  A 14.44 14.44 0.0 0 0 1046.8435 907.2923
  L 1044.3435 907.2879
  A 14.44 14.44 0.0 0 0 1029.8783 921.7027
  L 1029.6617 1045.7825
  A 14.44 14.44 0.0 0 0 1044.0765 1060.2477
  L 1046.5765 1060.2521
  A 14.44 14.44 0.0 0 0 1061.0417 1045.8373
  L 1061.2583 921.7575
  Z
  M 418.62 970.75
  A 0.81 0.78 85.8 0 1 419.21 971.28
  Q 430.49 1006.00 442.12 1040.29
  Q 444.58 1047.54 446.25 1050.21
  C 453.18 1061.28 468.67 1065.24 476.77 1052.80
  Q 478.45 1050.22 478.96 1048.68
  Q 492.05 1009.45 505.27 970.26
  Q 505.54 969.45 505.97 969.05
  A 0.60 0.60 0.0 0 1 506.96 969.32
  Q 507.64 971.58 508.01 973.74
  Q 514.30 1010.62 520.51 1047.51
  Q 521.25 1051.90 522.83 1054.92
  C 526.86 1062.58 537.91 1061.22 544.26 1057.92
  C 549.49 1055.20 549.84 1049.33 548.97 1044.07
  Q 539.39 986.30 529.95 928.50
  C 529.29 924.49 528.86 919.85 526.78 916.48
  C 520.82 906.85 506.56 904.22 497.79 912.03
  C 494.74 914.74 493.08 918.60 491.86 922.52
  Q 478.38 965.99 462.74 1008.74
  Q 462.35 1009.81 461.35 1009.36
  A 0.92 0.90 4.0 0 1 460.85 1008.80
  Q 448.04 969.62 435.07 930.35
  Q 431.32 919.01 430.03 916.85
  C 421.98 903.44 399.03 904.33 395.83 921.52
  Q 388.29 962.02 375.49 1039.54
  C 374.34 1046.48 372.52 1054.16 379.98 1058.30
  Q 385.05 1061.12 393.00 1060.27
  C 399.52 1059.57 401.93 1054.16 402.93 1048.49
  Q 409.65 1010.50 416.40 972.52
  Q 416.79 970.36 418.62 970.75
  Z"
/>
<path fill="#ffffff" d="
  M 580.80 621.05
  Q 579.46 621.18 579.56 622.53
  L 579.83 626.31
  Q 579.93 627.73 581.33 627.55
  C 616.45 623.18 655.79 595.45 646.04 554.80
  Q 644.91 550.08 643.84 545.38
  C 642.91 541.31 649.17 531.33 651.50 527.81
  A 1.37 1.37 0.0 0 1 653.42 527.44
  Q 654.33 528.06 654.62 529.43
  C 658.65 548.21 661.94 568.30 674.23 583.87
  C 689.99 603.83 717.66 611.41 741.30 601.97
  Q 745.35 600.35 756.60 593.57
  C 810.72 560.93 872.31 555.94 928.31 588.45
  Q 932.09 590.64 935.11 588.65
  Q 936.76 587.56 938.77 583.84
  Q 963.93 537.32 967.45 484.54
  C 968.31 471.69 969.03 463.84 963.37 453.45
  C 959.22 445.82 953.39 436.50 951.55 429.14
  C 947.34 412.28 960.16 398.06 976.74 395.80
  C 1010.45 391.21 1018.20 426.92 1021.63 451.74
  Q 1029.99 512.26 1014.37 571.23
  Q 1011.86 580.72 1009.08 590.16
  C 1005.98 600.72 1004.92 611.41 1003.52 622.26
  C 1000.32 647.07 991.81 670.38 978.69 691.70
  C 935.40 762.07 867.70 804.29 786.26 816.72
  C 711.45 828.13 631.34 819.48 564.49 782.25
  C 445.45 715.96 399.85 587.83 413.09 457.00
  C 414.42 443.80 418.67 431.48 427.45 421.46
  C 441.17 405.80 463.73 402.30 480.86 414.65
  C 488.39 420.07 489.85 430.85 487.07 439.34
  C 484.36 447.61 476.40 453.28 474.97 462.28
  C 465.86 519.27 469.14 588.41 510.87 633.10
  C 512.80 635.17 514.31 635.72 516.74 634.10
  A 1.08 1.08 0.0 0 0 516.95 632.48
  Q 489.57 601.70 482.98 560.73
  Q 477.80 528.47 480.32 500.19
  C 480.70 496.01 482.93 495.24 486.34 497.21
  C 493.54 501.34 498.49 503.48 507.00 502.79
  Q 539.82 500.14 572.41 500.32
  A 1.47 1.46 78.1 0 0 573.75 498.25
  Q 563.22 474.88 558.20 449.75
  Q 554.32 430.32 556.00 414.63
  C 557.61 399.55 567.44 386.67 582.34 383.46
  C 596.50 380.40 613.00 390.15 616.51 404.44
  C 619.17 415.26 613.46 426.72 606.33 434.52
  A 1.68 1.67 -43.6 0 0 606.27 436.72
  Q 627.60 462.77 641.19 493.59
  A 1.44 1.43 -27.2 0 1 640.60 495.41
  Q 627.01 503.30 613.10 511.34
  C 610.51 512.84 611.98 515.37 613.86 516.76
  Q 625.31 525.27 632.66 536.59
  C 645.24 555.96 643.32 580.91 627.87 598.13
  C 616.04 611.33 598.20 619.32 580.80 621.05
  Z
  M 564.06 580.00
  A 1.05 1.05 0.0 0 1 562.41 579.58
  Q 560.70 575.29 560.03 571.68
  C 559.64 569.60 558.63 568.59 556.49 568.99
  C 553.12 569.61 552.42 576.00 551.55 578.79
  A 1.84 1.84 0.0 0 1 548.75 579.76
  L 542.48 575.44
  A 2.02 2.01 -53.1 0 0 539.77 575.83
  L 539.51 576.14
  Q 537.91 578.11 539.82 579.78
  L 545.74 584.97
  Q 548.43 587.33 545.23 588.93
  L 543.87 589.61
  Q 540.53 591.27 537.54 589.04
  Q 530.85 584.04 528.17 576.13
  Q 527.09 572.93 523.79 573.64
  L 523.01 573.80
  A 2.45 2.45 0.0 0 0 521.17 576.84
  C 523.57 585.60 530.47 595.15 539.59 596.66
  C 547.33 597.93 552.19 593.01 556.23 586.75
  A 1.40 1.40 0.0 0 1 558.41 586.54
  C 560.96 589.15 564.64 593.85 568.51 594.42
  C 581.40 596.32 590.74 590.84 593.77 577.92
  Q 594.46 574.98 591.80 573.53
  L 590.75 572.96
  Q 588.05 571.49 587.25 574.47
  C 585.35 581.56 577.85 593.08 569.31 586.90
  C 567.83 585.84 567.14 583.62 568.85 582.58
  C 571.60 580.89 577.07 577.03 575.48 573.76
  Q 575.22 573.23 574.63 573.19
  C 568.18 572.71 568.08 576.67 564.06 580.00
  Z
  M 892.23 668.19
  A 0.41 0.40 15.4 0 1 891.56 668.57
  C 863.46 642.73 818.94 642.81 784.67 652.57
  Q 781.43 653.50 782.92 656.52
  L 783.04 656.78
  Q 784.66 660.06 788.18 659.08
  C 825.91 648.57 878.89 651.24 899.18 691.58
  Q 900.70 694.60 903.95 693.65
  L 904.59 693.46
  A 2.22 2.21 -17.4 0 0 906.07 690.65
  C 896.00 660.05 879.53 602.36 935.50 604.59
  C 943.11 604.89 959.10 610.34 953.17 621.26
  C 948.30 630.21 929.61 622.10 933.02 638.72
  Q 937.35 659.86 941.76 681.03
  Q 942.27 683.46 944.74 683.45
  L 947.49 683.45
  Q 949.81 683.45 949.34 681.17
  Q 944.93 659.88 940.77 638.56
  Q 940.08 635.04 942.98 634.50
  Q 951.44 632.94 956.51 628.00
  C 964.75 619.98 963.97 607.82 953.74 601.93
  C 941.52 594.88 924.19 595.22 911.56 601.08
  Q 891.50 610.39 888.87 632.51
  C 887.26 646.04 889.79 655.99 892.23 668.19
  Z"
/>
<path fill="#ffffff" d="
  M 624.67 510.86
  L 650.96 499.20
  A 3.38 3.38 0.0 0 1 655.42 503.67
  L 642.99 531.65
  A 3.38 3.38 0.0 0 1 637.33 532.47
  L 623.46 516.14
  A 3.38 3.38 0.0 0 1 624.67 510.86
  Z"
/>
<path fill="#006d37" d="
  M 564.06 580.00
  C 568.08 576.67 568.18 572.71 574.63 573.19
  Q 575.22 573.23 575.48 573.76
  C 577.07 577.03 571.60 580.89 568.85 582.58
  C 567.14 583.62 567.83 585.84 569.31 586.90
  C 577.85 593.08 585.35 581.56 587.25 574.47
  Q 588.05 571.49 590.75 572.96
  L 591.80 573.53
  Q 594.46 574.98 593.77 577.92
  C 590.74 590.84 581.40 596.32 568.51 594.42
  C 564.64 593.85 560.96 589.15 558.41 586.54
  A 1.40 1.40 0.0 0 0 556.23 586.75
  C 552.19 593.01 547.33 597.93 539.59 596.66
  C 530.47 595.15 523.57 585.60 521.17 576.84
  A 2.45 2.45 0.0 0 1 523.01 573.80
  L 523.79 573.64
  Q 527.09 572.93 528.17 576.13
  Q 530.85 584.04 537.54 589.04
  Q 540.53 591.27 543.87 589.61
  L 545.23 588.93
  Q 548.43 587.33 545.74 584.97
  L 539.82 579.78
  Q 537.91 578.11 539.51 576.14
  L 539.77 575.83
  A 2.02 2.01 -53.1 0 1 542.48 575.44
  L 548.75 579.76
  A 1.84 1.84 0.0 0 0 551.55 578.79
  C 552.42 576.00 553.12 569.61 556.49 568.99
  C 558.63 568.59 559.64 569.60 560.03 571.68
  Q 560.70 575.29 562.41 579.58
  A 1.05 1.05 0.0 0 0 564.06 580.00
  Z"
/>
<path fill="#006d37" d="
  M 892.23 668.19
  C 889.79 655.99 887.26 646.04 888.87 632.51
  Q 891.50 610.39 911.56 601.08
  C 924.19 595.22 941.52 594.88 953.74 601.93
  C 963.97 607.82 964.75 619.98 956.51 628.00
  Q 951.44 632.94 942.98 634.50
  Q 940.08 635.04 940.77 638.56
  Q 944.93 659.88 949.34 681.17
  Q 949.81 683.45 947.49 683.45
  L 944.74 683.45
  Q 942.27 683.46 941.76 681.03
  Q 937.35 659.86 933.02 638.72
  C 929.61 622.10 948.30 630.21 953.17 621.26
  C 959.10 610.34 943.11 604.89 935.50 604.59
  C 879.53 602.36 896.00 660.05 906.07 690.65
  A 2.22 2.21 -17.4 0 1 904.59 693.46
  L 903.95 693.65
  Q 900.70 694.60 899.18 691.58
  C 878.89 651.24 825.91 648.57 788.18 659.08
  Q 784.66 660.06 783.04 656.78
  L 782.92 656.52
  Q 781.43 653.50 784.67 652.57
  C 818.94 642.81 863.46 642.73 891.56 668.57
  A 0.41 0.40 15.4 0 0 892.23 668.19
  Z"
/>
<path fill="#ffffff" d="
  M 766.3847 1064.4677
  A 80.49 75.81 89.0 0 1 689.1815 985.3131
  A 80.49 75.81 89.0 0 1 763.5753 903.5123
  A 80.49 75.81 89.0 0 1 840.7785 982.6669
  A 80.49 75.81 89.0 0 1 766.3847 1064.4677
  Z
  M 820.12 963.18
  C 816.80 950.15 809.23 939.71 797.68 932.70
  Q 796.93 932.25 796.44 932.98
  Q 795.55 934.30 795.45 935.88
  Q 795.41 936.40 795.80 936.75
  Q 808.55 948.02 815.90 963.36
  C 816.73 965.09 817.90 966.00 819.65 964.60
  Q 820.34 964.04 820.12 963.18
  Z
  M 766.00 957.89
  Q 764.74 957.18 763.40 956.11
  C 748.46 944.12 727.53 946.59 720.48 966.22
  C 711.34 991.64 741.78 1016.69 758.95 1030.29
  C 762.41 1033.03 763.74 1034.97 767.70 1032.38
  C 785.33 1020.84 813.52 1000.23 814.26 977.57
  C 814.79 961.37 800.70 946.01 783.28 950.46
  Q 774.60 952.68 767.50 957.81
  A 1.40 1.39 41.7 0 1 766.00 957.89
  Z
  M 715.47 1004.18
  Q 714.66 1002.12 712.69 1003.12
  L 711.60 1003.66
  A 1.99 1.99 0.0 0 0 710.58 1005.95
  C 713.67 1017.58 722.96 1028.41 732.83 1035.39
  Q 734.42 1036.51 735.56 1034.93
  L 735.85 1034.53
  A 1.60 1.59 -52.2 0 0 735.58 1032.38
  Q 721.97 1020.83 715.47 1004.18
  Z"
/>
<path fill="#ffffff" d="
  M 885.19 973.82
  Q 882.68 967.02 881.47 974.17
  Q 875.57 1008.95 869.16 1046.00
  C 867.00 1058.47 861.36 1061.32 849.23 1059.22
  C 839.38 1057.51 839.45 1049.08 840.88 1040.48
  Q 849.05 991.22 860.51 926.75
  C 861.65 920.33 864.12 914.41 869.14 910.28
  C 878.51 902.58 890.67 908.64 895.98 918.24
  Q 897.44 920.87 899.69 927.86
  Q 912.64 968.05 926.60 1007.89
  Q 926.91 1008.78 927.60 1009.32
  A 0.78 0.78 0.0 0 0 928.82 1008.94
  Q 942.70 966.30 957.51 924.07
  Q 960.38 915.87 962.33 913.34
  C 968.15 905.81 979.04 905.44 986.58 911.19
  Q 993.22 916.25 994.67 924.50
  Q 1005.30 984.88 1014.45 1045.51
  Q 1016.14 1056.70 1005.50 1059.74
  C 994.93 1062.76 988.60 1059.65 986.66 1048.73
  Q 979.71 1009.72 973.28 970.87
  A 1.81 1.75 -66.7 0 0 973.04 970.24
  Q 972.44 969.26 971.71 969.58
  Q 971.34 969.75 971.14 970.32
  Q 958.93 1004.33 948.17 1038.82
  Q 945.45 1047.52 943.26 1050.75
  C 934.32 1063.93 915.34 1064.23 910.13 1047.47
  Q 898.17 1008.93 885.19 973.82
  Z
  M 941.93 1031.46
  L 926.98 1055.47
  A 0.14 0.14 0.0 0 0 927.03 1055.66
  L 927.10 1055.70
  A 14.16 6.20 -58.1 0 0 939.84 1046.96
  L 939.97 1046.75
  A 14.16 6.20 -58.1 0 0 942.19 1031.46
  L 942.12 1031.41
  A 0.14 0.14 0.0 0 0 941.93 1031.46
  Z"
/>
<path fill="#ffffff" d="
  M 653.63 1023.05
  A 1.41 1.39 69.1 0 0 652.58 1022.57
  Q 627.02 1022.42 601.75 1022.57
  Q 597.96 1022.60 596.47 1026.73
  Q 589.23 1046.81 586.93 1052.66
  C 582.12 1064.96 567.56 1062.28 560.54 1054.23
  C 557.46 1050.69 558.00 1045.83 559.70 1041.30
  Q 580.43 985.95 601.82 930.86
  Q 606.39 919.09 608.29 916.45
  C 613.43 909.31 624.17 904.78 632.84 908.17
  C 640.26 911.08 645.99 920.12 648.87 927.43
  Q 671.32 984.45 692.52 1041.95
  Q 696.35 1052.33 687.21 1058.01
  Q 680.87 1061.95 674.25 1061.03
  C 668.72 1060.26 666.51 1056.46 664.51 1051.18
  Q 659.34 1037.53 654.10 1023.91
  Q 653.90 1023.37 653.63 1023.05
  Z
  M 635.65 930.83
  C 638.65 937.12 638.98 945.95 645.56 949.90
  Q 646.69 950.58 647.42 949.78
  A 1.35 1.34 63.1 0 0 647.76 948.72
  C 646.58 938.02 641.19 920.50 629.45 916.78
  A 1.82 1.81 25.0 0 0 627.36 917.54
  C 625.33 920.78 630.14 923.89 632.38 925.63
  Q 633.65 926.62 635.65 930.83
  Z
  M 610.87 988.65
  A 2.21 2.21 0.0 0 0 612.94 991.64
  L 639.18 991.64
  A 2.21 2.21 0.0 0 0 641.25 988.65
  L 628.13 953.56
  A 2.21 2.21 0.0 0 0 623.99 953.56
  L 610.87 988.65
  Z"
/>
<path fill="#ffffff" d="
  M 1061.0417 1045.8373
  A 14.44 14.44 0.0 0 1 1046.5765 1060.2521
  L 1044.0765 1060.2477
  A 14.44 14.44 0.0 0 1 1029.6617 1045.7825
  L 1029.8783 921.7027
  A 14.44 14.44 0.0 0 1 1044.3435 907.2879
  L 1046.8435 907.2923
  A 14.44 14.44 0.0 0 1 1061.2583 921.7575
  L 1061.0417 1045.8373
  Z
  M 1051.36 909.91
  L 1047.49 911.32
  A 1.14 1.14 0.0 0 0 1046.81 912.78
  L 1053.56 931.44
  A 3.29 3.09 70.1 0 0 1057.59 933.48
  L 1057.80 933.41
  A 3.29 3.09 70.1 0 0 1059.58 929.26
  L 1052.82 910.60
  A 1.14 1.14 0.0 0 0 1051.36 909.91
  Z"
/>
<path fill="#ffffff" d="
  M 418.62 970.75
  Q 416.79 970.36 416.40 972.52
  Q 409.65 1010.50 402.93 1048.49
  C 401.93 1054.16 399.52 1059.57 393.00 1060.27
  Q 385.05 1061.12 379.98 1058.30
  C 372.52 1054.16 374.34 1046.48 375.49 1039.54
  Q 388.29 962.02 395.83 921.52
  C 399.03 904.33 421.98 903.44 430.03 916.85
  Q 431.32 919.01 435.07 930.35
  Q 448.04 969.62 460.85 1008.80
  A 0.92 0.90 4.0 0 0 461.35 1009.36
  Q 462.35 1009.81 462.74 1008.74
  Q 478.38 965.99 491.86 922.52
  C 493.08 918.60 494.74 914.74 497.79 912.03
  C 506.56 904.22 520.82 906.85 526.78 916.48
  C 528.86 919.85 529.29 924.49 529.95 928.50
  Q 539.39 986.30 548.97 1044.07
  C 549.84 1049.33 549.49 1055.20 544.26 1057.92
  C 537.91 1061.22 526.86 1062.58 522.83 1054.92
  Q 521.25 1051.90 520.51 1047.51
  Q 514.30 1010.62 508.01 973.74
  Q 507.64 971.58 506.96 969.32
  A 0.60 0.60 0.0 0 0 505.97 969.05
  Q 505.54 969.45 505.27 970.26
  Q 492.05 1009.45 478.96 1048.68
  Q 478.45 1050.22 476.77 1052.80
  C 468.67 1065.24 453.18 1061.28 446.25 1050.21
  Q 444.58 1047.54 442.12 1040.29
  Q 430.49 1006.00 419.21 971.28
  A 0.81 0.78 85.8 0 0 418.62 970.75
  Z
  M 510.25 920.65
  C 517.47 924.18 518.90 930.32 519.89 937.50
  Q 519.96 938.08 520.53 938.22
  Q 522.03 938.61 523.57 938.47
  Q 524.17 938.41 524.24 937.81
  Q 526.19 921.61 511.82 914.98
  A 2.05 2.05 0.0 0 0 509.10 916.00
  L 508.81 916.66
  Q 507.60 919.35 510.25 920.65
  Z"
/>
<path fill="#006d37" d="
  M 1051.36 909.91
  A 1.14 1.14 0.0 0 1 1052.82 910.60
  L 1059.58 929.26
  A 3.29 3.09 70.1 0 1 1057.80 933.41
  L 1057.59 933.48
  A 3.29 3.09 70.1 0 1 1053.56 931.44
  L 1046.81 912.78
  A 1.14 1.14 0.0 0 1 1047.49 911.32
  L 1051.36 909.91
  Z"
/>
<path fill="#006d37" d="
  M 510.25 920.65
  Q 507.60 919.35 508.81 916.66
  L 509.10 916.00
  A 2.05 2.05 0.0 0 1 511.82 914.98
  Q 526.19 921.61 524.24 937.81
  Q 524.17 938.41 523.57 938.47
  Q 522.03 938.61 520.53 938.22
  Q 519.96 938.08 519.89 937.50
  C 518.90 930.32 517.47 924.18 510.25 920.65
  Z"
/>
<path fill="#006d37" d="
  M 635.65 930.83
  Q 633.65 926.62 632.38 925.63
  C 630.14 923.89 625.33 920.78 627.36 917.54
  A 1.82 1.81 25.0 0 1 629.45 916.78
  C 641.19 920.50 646.58 938.02 647.76 948.72
  A 1.35 1.34 63.1 0 1 647.42 949.78
  Q 646.69 950.58 645.56 949.90
  C 638.98 945.95 638.65 937.12 635.65 930.83
  Z"
/>
<path fill="#006d37" d="
  M 797.68 932.70
  C 809.23 939.71 816.80 950.15 820.12 963.18
  Q 820.34 964.04 819.65 964.60
  C 817.90 966.00 816.73 965.09 815.90 963.36
  Q 808.55 948.02 795.80 936.75
  Q 795.41 936.40 795.45 935.88
  Q 795.55 934.30 796.44 932.98
  Q 796.93 932.25 797.68 932.70
  Z"
/>
<path fill="#ff0000" d="
  M 766.00 957.89
  A 1.40 1.39 41.7 0 0 767.50 957.81
  Q 774.60 952.68 783.28 950.46
  C 800.70 946.01 814.79 961.37 814.26 977.57
  C 813.52 1000.23 785.33 1020.84 767.70 1032.38
  C 763.74 1034.97 762.41 1033.03 758.95 1030.29
  C 741.78 1016.69 711.34 991.64 720.48 966.22
  C 727.53 946.59 748.46 944.12 763.40 956.11
  Q 764.74 957.18 766.00 957.89
  Z"
/>
<path fill="#006d37" d="
  M 610.87 988.65
  L 623.99 953.56
  A 2.21 2.21 0.0 0 1 628.13 953.56
  L 641.25 988.65
  A 2.21 2.21 0.0 0 1 639.18 991.64
  L 612.94 991.64
  A 2.21 2.21 0.0 0 1 610.87 988.65
  Z"
/>
<path fill="#006d37" d="
  M 715.47 1004.18
  Q 721.97 1020.83 735.58 1032.38
  A 1.60 1.59 -52.2 0 1 735.85 1034.53
  L 735.56 1034.93
  Q 734.42 1036.51 732.83 1035.39
  C 722.96 1028.41 713.67 1017.58 710.58 1005.95
  A 1.99 1.99 0.0 0 1 711.60 1003.66
  L 712.69 1003.12
  Q 714.66 1002.12 715.47 1004.18
  Z"
/>
<path fill="#006d37" d="
  M 941.93 1031.46
  A 0.14 0.14 0.0 0 1 942.12 1031.41
  L 942.19 1031.46
  A 14.16 6.20 -58.1 0 1 939.97 1046.75
  L 939.84 1046.96
  A 14.16 6.20 -58.1 0 1 927.10 1055.70
  L 927.03 1055.66
  A 0.14 0.14 0.0 0 1 926.98 1055.47
  L 941.93 1031.46
  Z"
/>
</svg>
