<?xml version="1.0" encoding="UTF-8" standalone="no"?>
<!DOCTYPE svg PUBLIC "-//W3C//DTD SVG 1.1//EN" "http://www.w3.org/Graphics/SVG/1.1/DTD/svg11.dtd">
<svg xmlns="http://www.w3.org/2000/svg" version="1.1" viewBox="0.00 0.00 625.00 416.00">
<g stroke-width="2.00" fill="none" stroke-linecap="butt">
<path stroke="#b69480" vector-effect="non-scaling-stroke" d="
  M 124.32 0.00
  C 121.41 12.62 126.29 25.69 136.10 33.15
  C 149.55 43.38 168.05 41.84 180.02 29.17
  C 181.17 27.96 181.83 26.26 183.13 24.91
  Q 183.47 24.55 183.57 24.06
  C 183.75 23.21 184.59 22.55 184.92 21.86
  Q 189.72 11.50 187.45 0.00"
/>
<path stroke="#b69480" vector-effect="non-scaling-stroke" d="
  M 252.26 0.00
  C 238.31 10.25 233.56 25.85 242.59 41.07
  C 244.74 44.68 249.40 49.04 252.99 50.99
  C 264.11 57.05 277.37 56.16 286.90 47.32
  Q 290.54 43.95 291.40 42.66
  C 298.91 31.45 299.00 17.71 290.48 7.14
  C 288.48 4.65 285.60 2.40 283.09 0.00"
/>
<path stroke="#b69480" vector-effect="non-scaling-stroke" d="
  M 536.75 0.00
  C 536.03 1.97 534.74 3.93 534.06 5.64
  C 526.29 25.15 530.30 45.97 545.18 60.43
  C 556.25 71.18 572.46 76.63 587.98 73.75
  C 604.51 70.67 617.40 60.31 625.00 45.01"
/>
<path stroke="#b09680" vector-effect="non-scaling-stroke" d="
  M 625.00 177.81
  L 624.78 177.36
  Q 624.55 176.91 624.21 177.27
  C 612.66 189.40 602.03 201.46 589.12 212.33"
/>
<path stroke="#fff3e6" vector-effect="non-scaling-stroke" d="
  M 589.12 212.33
  Q 586.42 213.17 583.56 213.01"
/>
<path stroke="#b69480" vector-effect="non-scaling-stroke" d="
  M 583.56 213.01
  L 581.53 212.70"
/>
<path stroke="#8db9a6" vector-effect="non-scaling-stroke" d="
  M 581.53 212.70
  Q 576.15 211.74 570.46 213.19"
/>
<path stroke="#b69480" vector-effect="non-scaling-stroke" d="
  M 570.46 213.19
  Q 558.54 215.25 549.13 223.88
  Q 546.68 226.12 545.51 227.97"
/>
<path stroke="#fff3e6" vector-effect="non-scaling-stroke" d="
  M 545.51 227.97
  Q 542.63 230.61 541.45 232.98"
/>
<path stroke="#b09680" vector-effect="non-scaling-stroke" d="
  M 541.45 232.98
  Q 527.07 233.19 513.40 232.71
  C 501.95 232.30 490.36 232.41 481.75 231.82
  Q 472.62 231.20 460.28 227.86"
/>
<path stroke="#b69480" vector-effect="non-scaling-stroke" d="
  M 460.28 227.86
  Q 460.08 227.10 460.32 226.52
  Q 465.75 213.41 458.83 200.99"
/>
<path stroke="#8db9a6" vector-effect="non-scaling-stroke" d="
  M 458.83 200.99
  C 451.82 189.20 439.26 184.20 425.75 187.83"
/>
<path stroke="#b69480" vector-effect="non-scaling-stroke" d="
  M 425.75 187.83
  Q 425.17 188.17 424.43 188.31"
/>
<path stroke="#8db9a6" vector-effect="non-scaling-stroke" d="
  M 424.43 188.31
  C 421.02 189.58 413.99 193.26 412.53 197.20"
/>
<path stroke="#b69480" vector-effect="non-scaling-stroke" d="
  M 412.53 197.20
  L 411.70 198.18"
/>
<path stroke="#fff3e6" vector-effect="non-scaling-stroke" d="
  M 411.70 198.18
  Q 410.03 199.03 408.75 201.31"
/>
<path stroke="#b09680" vector-effect="non-scaling-stroke" d="
  M 408.75 201.31
  Q 395.61 196.13 382.13 198.42
  C 371.51 200.22 360.87 204.13 349.74 205.69
  Q 338.35 207.28 327.29 204.16
  Q 319.11 201.85 300.43 193.93
  C 296.17 192.12 291.63 190.92 287.17 189.44"
/>
<path stroke="#b69480" vector-effect="non-scaling-stroke" d="
  M 287.17 189.44
  C 294.15 189.52 297.98 187.02 303.61 183.61
  Q 305.68 182.35 308.64 176.91
  Q 315.06 165.13 309.00 153.36
  C 305.76 147.07 299.58 142.86 292.92 141.20
  C 277.21 137.30 262.04 150.60 263.08 166.11
  C 263.80 176.78 270.13 184.95 280.30 188.33"
/>
<path stroke="#b09680" vector-effect="non-scaling-stroke" d="
  M 280.30 188.33
  C 244.17 184.92 216.87 209.14 184.59 220.33
  C 173.43 224.19 165.43 223.96 154.99 223.57"
/>
<path stroke="#fff3e6" vector-effect="non-scaling-stroke" d="
  M 154.99 223.57
  Q 154.74 223.39 154.74 222.42"
/>
<path stroke="#b69480" vector-effect="non-scaling-stroke" d="
  M 154.74 222.42
  C 157.95 223.12 162.37 219.02 164.16 216.85"
/>
<path stroke="#8db9a6" vector-effect="non-scaling-stroke" d="
  M 164.16 216.85
  Q 167.70 213.59 169.28 208.99"
/>
<path stroke="#b69480" vector-effect="non-scaling-stroke" d="
  M 169.28 208.99
  Q 169.72 208.49 169.88 207.60"
/>
<path stroke="#8db9a6" vector-effect="non-scaling-stroke" d="
  M 169.88 207.60
  Q 173.02 198.09 169.20 189.01
  Q 168.98 188.48 168.68 188.54"
/>
<path stroke="#b69480" vector-effect="non-scaling-stroke" d="
  M 168.68 188.54
  Q 168.91 187.61 168.26 187.08"
/>
<path stroke="#8db9a6" vector-effect="non-scaling-stroke" d="
  M 168.26 187.08
  Q 163.08 177.28 152.55 174.44"
/>
<path stroke="#b69480" vector-effect="non-scaling-stroke" d="
  M 152.55 174.44
  Q 149.06 172.95 145.79 173.09"
/>
<path stroke="#8db9a6" vector-effect="non-scaling-stroke" d="
  M 145.79 173.09
  Q 136.51 173.22 129.73 178.74"
/>
<path stroke="#b69480" vector-effect="non-scaling-stroke" d="
  M 129.73 178.74
  Q 128.56 179.24 127.50 180.27"
/>
<path stroke="#8db9a6" vector-effect="non-scaling-stroke" d="
  M 127.50 180.27
  Q 119.00 189.02 119.54 200.77"
/>
<path stroke="#b69480" vector-effect="non-scaling-stroke" d="
  M 119.54 200.77
  Q 120.35 210.67 127.03 217.28
  Q 127.37 217.62 127.85 217.53
  Q 128.84 217.34 129.99 217.62"
/>
<path stroke="#fff3e6" vector-effect="non-scaling-stroke" d="
  M 129.99 217.62
  L 128.95 217.73
  Q 128.42 217.79 128.22 218.28
  Q 127.99 218.87 128.27 219.45"
/>
<path stroke="#b09680" vector-effect="non-scaling-stroke" d="
  M 128.27 219.45
  Q 127.28 218.37 126.25 218.19
  C 110.22 215.51 93.68 218.18 77.25 219.69
  C 51.57 222.05 30.71 208.73 12.17 192.83
  Q 6.38 187.86 0.00 182.92"
/>
<path stroke="#b69480" vector-effect="non-scaling-stroke" d="
  M 0.00 100.53
  C 30.86 103.96 47.98 68.54 26.26 46.08
  C 25.25 45.04 23.84 44.40 22.64 43.50
  C 16.14 38.62 8.01 36.89 0.00 37.94"
/>
<path stroke="#b69480" vector-effect="non-scaling-stroke" d="
  M 229.84 101.25
  A 36.09 36.09 0.0 0 0 193.75 65.16
  A 36.09 36.09 0.0 0 0 157.66 101.25
  A 36.09 36.09 0.0 0 0 193.75 137.34
  A 36.09 36.09 0.0 0 0 229.84 101.25"
/>
<path stroke="#b69480" vector-effect="non-scaling-stroke" d="
  M 455.93 135.36
  Q 458.49 131.77 459.77 127.99
  Q 465.79 110.23 455.61 94.83
  C 451.72 88.94 445.53 83.95 439.38 81.37
  Q 422.57 74.33 406.39 83.53
  C 405.86 83.83 405.62 84.37 404.88 84.49
  A 1.62 1.61 18.6 0 0 404.03 84.91
  C 401.86 86.98 399.44 88.33 397.60 90.67
  C 396.16 92.51 394.52 94.30 393.42 96.26
  C 385.14 110.94 386.20 128.04 398.05 140.38
  Q 402.30 144.80 403.92 145.85
  Q 420.36 156.47 438.44 149.82
  C 445.77 147.12 449.35 143.11 455.13 136.88
  Q 455.41 136.58 455.54 136.14
  Q 455.67 135.72 455.93 135.36"
/>
<path stroke="#b69480" vector-effect="non-scaling-stroke" d="
  M 622.28 0.00
  C 624.24 0.91 624.58 3.39 625.00 5.34"
/>
<path stroke="#672b00" vector-effect="non-scaling-stroke" d="
  M 287.17 189.44
  Q 283.14 189.82 280.30 188.33"
/>
<path stroke="#444e27" vector-effect="non-scaling-stroke" d="
  M 145.79 173.09
  C 142.47 174.23 139.20 174.78 136.04 176.17
  Q 132.95 177.54 129.73 178.74"
/>
<path stroke="#444e27" vector-effect="non-scaling-stroke" d="
  M 152.55 174.44
  Q 156.22 176.87 159.86 178.90
  Q 162.30 180.26 166.04 185.72
  Q 166.88 186.94 168.26 187.08"
/>
<path stroke="#444e27" vector-effect="non-scaling-stroke" d="
  M 168.68 188.54
  Q 170.17 194.33 170.10 200.24
  C 170.07 203.03 168.96 204.87 169.88 207.60"
/>
<path stroke="#444e27" vector-effect="non-scaling-stroke" d="
  M 169.28 208.99
  Q 168.61 209.22 168.17 209.91
  Q 166.05 213.17 164.16 216.85"
/>
<path stroke="#b68867" vector-effect="non-scaling-stroke" d="
  M 154.74 222.42
  L 129.99 217.62"
/>
<path stroke="#444e27" vector-effect="non-scaling-stroke" d="
  M 119.54 200.77
  Q 120.39 199.09 120.85 195.25
  Q 121.51 189.71 126.20 182.99
  Q 127.45 181.19 127.50 180.27"
/>
<path stroke="#b08a67" vector-effect="non-scaling-stroke" d="
  M 440.46 416.00
  Q 439.75 415.86 439.34 415.59
  A 0.70 0.70 0.0 0 1 439.05 414.85
  Q 441.00 406.56 440.84 404.24
  Q 439.13 380.00 419.84 370.29
  C 390.07 355.31 356.37 382.53 365.99 415.02
  Q 366.16 415.56 365.61 415.72
  L 364.62 416.00"
/>
<path stroke="#b08a67" vector-effect="non-scaling-stroke" d="
  M 0.00 249.00
  L 0.35 248.38
  Q 0.59 247.97 1.05 248.09
  C 14.53 251.57 28.19 243.47 31.84 230.37
  C 36.13 214.92 25.05 199.02 8.45 198.89
  Q 4.08 198.85 0.00 199.64"
/>
<path stroke="#b08a67" vector-effect="non-scaling-stroke" d="
  M 128.27 219.45
  C 136.07 225.39 145.80 227.57 154.99 223.57"
/>
<path stroke="#b08a67" vector-effect="non-scaling-stroke" d="
  M 408.75 201.31
  Q 404.56 208.93 404.98 215.77
  C 406.80 245.34 445.37 255.14 459.82 228.35"
/>
<path stroke="#672b00" vector-effect="non-scaling-stroke" d="
  M 459.82 228.35
  Q 459.33 228.17 460.28 227.86"
/>
<path stroke="#b08a67" vector-effect="non-scaling-stroke" d="
  M 541.45 232.98
  Q 535.43 243.45 536.04 255.00
  C 537.03 274.00 550.05 289.72 568.40 293.83
  C 594.97 299.78 619.56 279.26 618.86 252.14
  C 618.38 233.64 606.50 219.24 588.94 213.44
  A 0.39 0.39 0.0 0 1 588.87 212.73
  Q 589.07 212.61 589.12 212.33"
/>
<path stroke="#b08a67" vector-effect="non-scaling-stroke" d="
  M 146.92 301.27
  A 38.56 38.56 0.0 0 0 108.36 262.71
  A 38.56 38.56 0.0 0 0 69.80 301.27
  A 38.56 38.56 0.0 0 0 108.36 339.83
  A 38.56 38.56 0.0 0 0 146.92 301.27"
/>
<path stroke="#b08a67" vector-effect="non-scaling-stroke" d="
  M 558.53 354.19
  A 44.81 44.81 0.0 0 0 513.72 309.38
  A 44.81 44.81 0.0 0 0 468.91 354.19
  A 44.81 44.81 0.0 0 0 513.72 399.00
  A 44.81 44.81 0.0 0 0 558.53 354.19"
/>
<path stroke="#b08a67" vector-effect="non-scaling-stroke" d="
  M 320.64 367.49
  A 27.31 27.31 0.0 0 0 293.33 340.18
  A 27.31 27.31 0.0 0 0 266.02 367.49
  A 27.31 27.31 0.0 0 0 293.33 394.80
  A 27.31 27.31 0.0 0 0 320.64 367.49"
/>
<path stroke="#444e27" vector-effect="non-scaling-stroke" d="
  M 458.83 200.99
  Q 458.95 201.35 458.52 201.64
  A 0.34 0.33 55.6 0 1 458.06 201.55
  Q 453.82 195.45 447.54 191.18
  Q 447.27 190.99 447.08 190.74
  Q 446.79 190.34 446.34 190.13
  C 443.02 188.50 440.29 187.78 435.51 187.67
  C 433.75 187.63 431.59 187.98 429.55 187.85
  Q 429.06 187.82 428.62 188.07
  Q 427.25 188.85 425.75 187.83"
/>
<path stroke="#b68867" vector-effect="non-scaling-stroke" d="
  M 459.82 228.35
  C 458.92 227.37 458.20 226.57 457.00 225.97
  C 441.85 218.33 427.59 209.33 412.51 201.63
  Q 412.07 201.41 412.02 200.92
  L 411.70 198.18"
/>
<path stroke="#444e27" vector-effect="non-scaling-stroke" d="
  M 412.53 197.20
  L 424.43 188.31"
/>
<path stroke="#444e27" vector-effect="non-scaling-stroke" d="
  M 581.53 212.70
  C 579.41 214.45 573.20 213.45 570.46 213.19"
/>
<path stroke="#b68867" vector-effect="non-scaling-stroke" d="
  M 545.51 227.97
  Q 546.38 228.69 546.38 230.50
  Q 546.38 231.12 547.00 231.08
  C 552.46 230.68 558.64 228.52 563.57 226.74
  Q 569.38 224.64 574.28 220.99
  Q 579.15 217.36 583.56 213.01"
/>
</g>
<path fill="#ffffff" d="
  M 0.00 0.00
  L 124.32 0.00
  C 121.41 12.62 126.29 25.69 136.10 33.15
  C 149.55 43.38 168.05 41.84 180.02 29.17
  C 181.17 27.96 181.83 26.26 183.13 24.91
  Q 183.47 24.55 183.57 24.06
  C 183.75 23.21 184.59 22.55 184.92 21.86
  Q 189.72 11.50 187.45 0.00
  L 252.26 0.00
  C 238.31 10.25 233.56 25.85 242.59 41.07
  C 244.74 44.68 249.40 49.04 252.99 50.99
  C 264.11 57.05 277.37 56.16 286.90 47.32
  Q 290.54 43.95 291.40 42.66
  C 298.91 31.45 299.00 17.71 290.48 7.14
  C 288.48 4.65 285.60 2.40 283.09 0.00
  L 536.75 0.00
  C 536.03 1.97 534.74 3.93 534.06 5.64
  C 526.29 25.15 530.30 45.97 545.18 60.43
  C 556.25 71.18 572.46 76.63 587.98 73.75
  C 604.51 70.67 617.40 60.31 625.00 45.01
  L 625.00 177.81
  L 624.78 177.36
  Q 624.55 176.91 624.21 177.27
  C 612.66 189.40 602.03 201.46 589.12 212.33
  Q 586.42 213.17 583.56 213.01
  L 581.53 212.70
  Q 576.15 211.74 570.46 213.19
  Q 558.54 215.25 549.13 223.88
  Q 546.68 226.12 545.51 227.97
  Q 542.63 230.61 541.45 232.98
  Q 527.07 233.19 513.40 232.71
  C 501.95 232.30 490.36 232.41 481.75 231.82
  Q 472.62 231.20 460.28 227.86
  Q 460.08 227.10 460.32 226.52
  Q 465.75 213.41 458.83 200.99
  C 451.82 189.20 439.26 184.20 425.75 187.83
  Q 425.17 188.17 424.43 188.31
  C 421.02 189.58 413.99 193.26 412.53 197.20
  L 411.70 198.18
  Q 410.03 199.03 408.75 201.31
  Q 395.61 196.13 382.13 198.42
  C 371.51 200.22 360.87 204.13 349.74 205.69
  Q 338.35 207.28 327.29 204.16
  Q 319.11 201.85 300.43 193.93
  C 296.17 192.12 291.63 190.92 287.17 189.44
  C 294.15 189.52 297.98 187.02 303.61 183.61
  Q 305.68 182.35 308.64 176.91
  Q 315.06 165.13 309.00 153.36
  C 305.76 147.07 299.58 142.86 292.92 141.20
  C 277.21 137.30 262.04 150.60 263.08 166.11
  C 263.80 176.78 270.13 184.95 280.30 188.33
  C 244.17 184.92 216.87 209.14 184.59 220.33
  C 173.43 224.19 165.43 223.96 154.99 223.57
  Q 154.74 223.39 154.74 222.42
  C 157.95 223.12 162.37 219.02 164.16 216.85
  Q 167.70 213.59 169.28 208.99
  Q 169.72 208.49 169.88 207.60
  Q 173.02 198.09 169.20 189.01
  Q 168.98 188.48 168.68 188.54
  Q 168.91 187.61 168.26 187.08
  Q 163.08 177.28 152.55 174.44
  Q 149.06 172.95 145.79 173.09
  Q 136.51 173.22 129.73 178.74
  Q 128.56 179.24 127.50 180.27
  Q 119.00 189.02 119.54 200.77
  Q 120.35 210.67 127.03 217.28
  Q 127.37 217.62 127.85 217.53
  Q 128.84 217.34 129.99 217.62
  L 128.95 217.73
  Q 128.42 217.79 128.22 218.28
  Q 127.99 218.87 128.27 219.45
  Q 127.28 218.37 126.25 218.19
  C 110.22 215.51 93.68 218.18 77.25 219.69
  C 51.57 222.05 30.71 208.73 12.17 192.83
  Q 6.38 187.86 0.00 182.92
  L 0.00 100.53
  C 30.86 103.96 47.98 68.54 26.26 46.08
  C 25.25 45.04 23.84 44.40 22.64 43.50
  C 16.14 38.62 8.01 36.89 0.00 37.94
  L 0.00 0.00
  Z
  M 229.84 101.25
  A 36.09 36.09 0.0 0 0 193.75 65.16
  A 36.09 36.09 0.0 0 0 157.66 101.25
  A 36.09 36.09 0.0 0 0 193.75 137.34
  A 36.09 36.09 0.0 0 0 229.84 101.25
  Z
  M 455.93 135.36
  Q 458.49 131.77 459.77 127.99
  Q 465.79 110.23 455.61 94.83
  C 451.72 88.94 445.53 83.95 439.38 81.37
  Q 422.57 74.33 406.39 83.53
  C 405.86 83.83 405.62 84.37 404.88 84.49
  A 1.62 1.61 18.6 0 0 404.03 84.91
  C 401.86 86.98 399.44 88.33 397.60 90.67
  C 396.16 92.51 394.52 94.30 393.42 96.26
  C 385.14 110.94 386.20 128.04 398.05 140.38
  Q 402.30 144.80 403.92 145.85
  Q 420.36 156.47 438.44 149.82
  C 445.77 147.12 449.35 143.11 455.13 136.88
  Q 455.41 136.58 455.54 136.14
  Q 455.67 135.72 455.93 135.36
  Z"
/>
<path fill="#6d2900" d="
  M 124.32 0.00
  L 187.45 0.00
  Q 189.72 11.50 184.92 21.86
  C 184.59 22.55 183.75 23.21 183.57 24.06
  Q 183.47 24.55 183.13 24.91
  C 181.83 26.26 181.17 27.96 180.02 29.17
  C 168.05 41.84 149.55 43.38 136.10 33.15
  C 126.29 25.69 121.41 12.62 124.32 0.00
  Z"
/>
<path fill="#6d2900" d="
  M 252.26 0.00
  L 283.09 0.00
  C 285.60 2.40 288.48 4.65 290.48 7.14
  C 299.00 17.71 298.91 31.45 291.40 42.66
  Q 290.54 43.95 286.90 47.32
  C 277.37 56.16 264.11 57.05 252.99 50.99
  C 249.40 49.04 244.74 44.68 242.59 41.07
  C 233.56 25.85 238.31 10.25 252.26 0.00
  Z"
/>
<path fill="#6d2900" d="
  M 536.75 0.00
  L 622.28 0.00
  C 624.24 0.91 624.58 3.39 625.00 5.34
  L 625.00 45.01
  C 617.40 60.31 604.51 70.67 587.98 73.75
  C 572.46 76.63 556.25 71.18 545.18 60.43
  C 530.30 45.97 526.29 25.15 534.06 5.64
  C 534.74 3.93 536.03 1.97 536.75 0.00
  Z"
/>
<path fill="#ffffff" d="
  M 622.28 0.00
  L 625.00 0.00
  L 625.00 5.34
  C 624.58 3.39 624.24 0.91 622.28 0.00
  Z"
/>
<path fill="#6d2900" d="
  M 0.00 100.53
  L 0.00 37.94
  C 8.01 36.89 16.14 38.62 22.64 43.50
  C 23.84 44.40 25.25 45.04 26.26 46.08
  C 47.98 68.54 30.86 103.96 0.00 100.53
  Z"
/>
<circle fill="#6d2900" cx="193.75" cy="101.25" r="36.09"/>
<path fill="#6d2900" d="
  M 455.54 136.14
  Q 455.41 136.58 455.13 136.88
  C 449.35 143.11 445.77 147.12 438.44 149.82
  Q 420.36 156.47 403.92 145.85
  Q 402.30 144.80 398.05 140.38
  C 386.20 128.04 385.14 110.94 393.42 96.26
  C 394.52 94.30 396.16 92.51 397.60 90.67
  C 399.44 88.33 401.86 86.98 404.03 84.91
  A 1.62 1.61 18.6 0 1 404.88 84.49
  C 405.62 84.37 405.86 83.83 406.39 83.53
  Q 422.57 74.33 439.38 81.37
  C 445.53 83.95 451.72 88.94 455.61 94.83
  Q 465.79 110.23 459.77 127.99
  Q 458.49 131.77 455.93 135.36
  Q 455.67 135.72 455.54 136.14
  Z"
/>
<path fill="#6d2900" d="
  M 287.17 189.44
  Q 283.14 189.82 280.30 188.33
  C 270.13 184.95 263.80 176.78 263.08 166.11
  C 262.04 150.60 277.21 137.30 292.92 141.20
  C 299.58 142.86 305.76 147.07 309.00 153.36
  Q 315.06 165.13 308.64 176.91
  Q 305.68 182.35 303.61 183.61
  C 297.98 187.02 294.15 189.52 287.17 189.44
  Z"
/>
<path fill="#1b724d" d="
  M 145.79 173.09
  C 142.47 174.23 139.20 174.78 136.04 176.17
  Q 132.95 177.54 129.73 178.74
  Q 136.51 173.22 145.79 173.09
  Z"
/>
<path fill="#6d2900" d="
  M 145.79 173.09
  Q 149.06 172.95 152.55 174.44
  Q 156.22 176.87 159.86 178.90
  Q 162.30 180.26 166.04 185.72
  Q 166.88 186.94 168.26 187.08
  Q 168.91 187.61 168.68 188.54
  Q 170.17 194.33 170.10 200.24
  C 170.07 203.03 168.96 204.87 169.88 207.60
  Q 169.72 208.49 169.28 208.99
  Q 168.61 209.22 168.17 209.91
  Q 166.05 213.17 164.16 216.85
  C 162.37 219.02 157.95 223.12 154.74 222.42
  L 129.99 217.62
  Q 128.84 217.34 127.85 217.53
  Q 127.37 217.62 127.03 217.28
  Q 120.35 210.67 119.54 200.77
  Q 120.39 199.09 120.85 195.25
  Q 121.51 189.71 126.20 182.99
  Q 127.45 181.19 127.50 180.27
  Q 128.56 179.24 129.73 178.74
  Q 132.95 177.54 136.04 176.17
  C 139.20 174.78 142.47 174.23 145.79 173.09
  Z"
/>
<path fill="#1b724d" d="
  M 152.55 174.44
  Q 163.08 177.28 168.26 187.08
  Q 166.88 186.94 166.04 185.72
  Q 162.30 180.26 159.86 178.90
  Q 156.22 176.87 152.55 174.44
  Z"
/>
<path fill="#602d00" d="
  M 625.00 177.81
  L 625.00 416.00
  L 440.46 416.00
  Q 439.75 415.86 439.34 415.59
  A 0.70 0.70 0.0 0 1 439.05 414.85
  Q 441.00 406.56 440.84 404.24
  Q 439.13 380.00 419.84 370.29
  C 390.07 355.31 356.37 382.53 365.99 415.02
  Q 366.16 415.56 365.61 415.72
  L 364.62 416.00
  L 0.00 416.00
  L 0.00 249.00
  L 0.35 248.38
  Q 0.59 247.97 1.05 248.09
  C 14.53 251.57 28.19 243.47 31.84 230.37
  C 36.13 214.92 25.05 199.02 8.45 198.89
  Q 4.08 198.85 0.00 199.64
  L 0.00 182.92
  Q 6.38 187.86 12.17 192.83
  C 30.71 208.73 51.57 222.05 77.25 219.69
  C 93.68 218.18 110.22 215.51 126.25 218.19
  Q 127.28 218.37 128.27 219.45
  C 136.07 225.39 145.80 227.57 154.99 223.57
  C 165.43 223.96 173.43 224.19 184.59 220.33
  C 216.87 209.14 244.17 184.92 280.30 188.33
  Q 283.14 189.82 287.17 189.44
  C 291.63 190.92 296.17 192.12 300.43 193.93
  Q 319.11 201.85 327.29 204.16
  Q 338.35 207.28 349.74 205.69
  C 360.87 204.13 371.51 200.22 382.13 198.42
  Q 395.61 196.13 408.75 201.31
  Q 404.56 208.93 404.98 215.77
  C 406.80 245.34 445.37 255.14 459.82 228.35
  Q 459.33 228.17 460.28 227.86
  Q 472.62 231.20 481.75 231.82
  C 490.36 232.41 501.95 232.30 513.40 232.71
  Q 527.07 233.19 541.45 232.98
  Q 535.43 243.45 536.04 255.00
  C 537.03 274.00 550.05 289.72 568.40 293.83
  C 594.97 299.78 619.56 279.26 618.86 252.14
  C 618.38 233.64 606.50 219.24 588.94 213.44
  A 0.39 0.39 0.0 0 1 588.87 212.73
  Q 589.07 212.61 589.12 212.33
  C 602.03 201.46 612.66 189.40 624.21 177.27
  Q 624.55 176.91 624.78 177.36
  L 625.00 177.81
  Z
  M 146.92 301.27
  A 38.56 38.56 0.0 0 0 108.36 262.71
  A 38.56 38.56 0.0 0 0 69.80 301.27
  A 38.56 38.56 0.0 0 0 108.36 339.83
  A 38.56 38.56 0.0 0 0 146.92 301.27
  Z
  M 558.53 354.19
  A 44.81 44.81 0.0 0 0 513.72 309.38
  A 44.81 44.81 0.0 0 0 468.91 354.19
  A 44.81 44.81 0.0 0 0 513.72 399.00
  A 44.81 44.81 0.0 0 0 558.53 354.19
  Z
  M 320.64 367.49
  A 27.31 27.31 0.0 0 0 293.33 340.18
  A 27.31 27.31 0.0 0 0 266.02 367.49
  A 27.31 27.31 0.0 0 0 293.33 394.80
  A 27.31 27.31 0.0 0 0 320.64 367.49
  Z"
/>
<path fill="#1b724d" d="
  M 127.50 180.27
  Q 127.45 181.19 126.20 182.99
  Q 121.51 189.71 120.85 195.25
  Q 120.39 199.09 119.54 200.77
  Q 119.00 189.02 127.50 180.27
  Z"
/>
<path fill="#1b724d" d="
  M 458.83 200.99
  Q 458.95 201.35 458.52 201.64
  A 0.34 0.33 55.6 0 1 458.06 201.55
  Q 453.82 195.45 447.54 191.18
  Q 447.27 190.99 447.08 190.74
  Q 446.79 190.34 446.34 190.13
  C 443.02 188.50 440.29 187.78 435.51 187.67
  C 433.75 187.63 431.59 187.98 429.55 187.85
  Q 429.06 187.82 428.62 188.07
  Q 427.25 188.85 425.75 187.83
  C 439.26 184.20 451.82 189.20 458.83 200.99
  Z"
/>
<path fill="#6d2900" d="
  M 458.83 200.99
  Q 465.75 213.41 460.32 226.52
  Q 460.08 227.10 460.28 227.86
  Q 459.33 228.17 459.82 228.35
  C 458.92 227.37 458.20 226.57 457.00 225.97
  C 441.85 218.33 427.59 209.33 412.51 201.63
  Q 412.07 201.41 412.02 200.92
  L 411.70 198.18
  L 412.53 197.20
  L 424.43 188.31
  Q 425.17 188.17 425.75 187.83
  Q 427.25 188.85 428.62 188.07
  Q 429.06 187.82 429.55 187.85
  C 431.59 187.98 433.75 187.63 435.51 187.67
  C 440.29 187.78 443.02 188.50 446.34 190.13
  Q 446.79 190.34 447.08 190.74
  Q 447.27 190.99 447.54 191.18
  Q 453.82 195.45 458.06 201.55
  A 0.34 0.33 55.6 0 0 458.52 201.64
  Q 458.95 201.35 458.83 200.99
  Z"
/>
<path fill="#1b724d" d="
  M 424.43 188.31
  L 412.53 197.20
  C 413.99 193.26 421.02 189.58 424.43 188.31
  Z"
/>
<path fill="#1b724d" d="
  M 168.68 188.54
  Q 168.98 188.48 169.20 189.01
  Q 173.02 198.09 169.88 207.60
  C 168.96 204.87 170.07 203.03 170.10 200.24
  Q 170.17 194.33 168.68 188.54
  Z"
/>
<path fill="#ffe6cd" d="
  M 411.70 198.18
  L 412.02 200.92
  Q 412.07 201.41 412.51 201.63
  C 427.59 209.33 441.85 218.33 457.00 225.97
  C 458.20 226.57 458.92 227.37 459.82 228.35
  C 445.37 255.14 406.80 245.34 404.98 215.77
  Q 404.56 208.93 408.75 201.31
  Q 410.03 199.03 411.70 198.18
  Z"
/>
<path fill="#ffe6cd" d="
  M 0.00 249.00
  L 0.00 199.64
  Q 4.08 198.85 8.45 198.89
  C 25.05 199.02 36.13 214.92 31.84 230.37
  C 28.19 243.47 14.53 251.57 1.05 248.09
  Q 0.59 247.97 0.35 248.38
  L 0.00 249.00
  Z"
/>
<path fill="#1b724d" d="
  M 169.28 208.99
  Q 167.70 213.59 164.16 216.85
  Q 166.05 213.17 168.17 209.91
  Q 168.61 209.22 169.28 208.99
  Z"
/>
<path fill="#1b724d" d="
  M 581.53 212.70
  C 579.41 214.45 573.20 213.45 570.46 213.19
  Q 576.15 211.74 581.53 212.70
  Z"
/>
<path fill="#ffe6cd" d="
  M 589.12 212.33
  Q 589.07 212.61 588.87 212.73
  A 0.39 0.39 0.0 0 0 588.94 213.44
  C 606.50 219.24 618.38 233.64 618.86 252.14
  C 619.56 279.26 594.97 299.78 568.40 293.83
  C 550.05 289.72 537.03 274.00 536.04 255.00
  Q 535.43 243.45 541.45 232.98
  Q 542.63 230.61 545.51 227.97
  Q 546.38 228.69 546.38 230.50
  Q 546.38 231.12 547.00 231.08
  C 552.46 230.68 558.64 228.52 563.57 226.74
  Q 569.38 224.64 574.28 220.99
  Q 579.15 217.36 583.56 213.01
  Q 586.42 213.17 589.12 212.33
  Z"
/>
<path fill="#6d2900" d="
  M 581.53 212.70
  L 583.56 213.01
  Q 579.15 217.36 574.28 220.99
  Q 569.38 224.64 563.57 226.74
  C 558.64 228.52 552.46 230.68 547.00 231.08
  Q 546.38 231.12 546.38 230.50
  Q 546.38 228.69 545.51 227.97
  Q 546.68 226.12 549.13 223.88
  Q 558.54 215.25 570.46 213.19
  C 573.20 213.45 579.41 214.45 581.53 212.70
  Z"
/>
<path fill="#ffe6cd" d="
  M 129.99 217.62
  L 154.74 222.42
  Q 154.74 223.39 154.99 223.57
  C 145.80 227.57 136.07 225.39 128.27 219.45
  Q 127.99 218.87 128.22 218.28
  Q 128.42 217.79 128.95 217.73
  L 129.99 217.62
  Z"
/>
<circle fill="#ffe6cd" cx="108.36" cy="301.27" r="38.56"/>
<circle fill="#ffe6cd" cx="513.72" cy="354.19" r="44.81"/>
<circle fill="#ffe6cd" cx="293.33" cy="367.49" r="27.31"/>
<path fill="#ffe6cd" d="
  M 440.46 416.00
  L 364.62 416.00
  L 365.61 415.72
  Q 366.16 415.56 365.99 415.02
  C 356.37 382.53 390.07 355.31 419.84 370.29
  Q 439.13 380.00 440.84 404.24
  Q 441.00 406.56 439.05 414.85
  A 0.70 0.70 0.0 0 0 439.34 415.59
  Q 439.75 415.86 440.46 416.00
  Z"
/>
</svg>
