<?xml version="1.0" encoding="UTF-8" standalone="no"?>
<!DOCTYPE svg PUBLIC "-//W3C//DTD SVG 1.1//EN" "http://www.w3.org/Graphics/SVG/1.1/DTD/svg11.dtd">
<svg xmlns="http://www.w3.org/2000/svg" version="1.1" viewBox="0.00 0.00 900.00 600.00">
<g stroke-width="2.00" fill="none" stroke-linecap="butt">
<path stroke="#afd4a4" vector-effect="non-scaling-stroke" d="
  M 900.00 83.16
  Q 866.15 81.36 832.25 79.88
  Q 810.57 78.93 762.70 74.34
  Q 753.98 73.50 742.81 72.26
  Q 693.26 66.74 676.25 65.63
  Q 651.59 64.01 623.75 63.85
  C 622.98 63.85 622.31 64.08 621.74 64.08
  Q 605.25 64.09 585.50 65.12
  Q 547.62 67.11 534.76 67.96
  Q 528.15 68.40 512.25 69.08
  Q 466.51 71.05 430.62 71.37
  Q 430.42 71.59 429.75 71.59
  C 384.99 71.55 336.82 74.33 290.25 72.59
  C 268.81 71.78 247.65 69.18 226.53 65.45
  Q 203.11 61.30 179.71 57.08
  Q 157.63 53.09 144.50 51.61
  C 113.36 48.12 82.67 48.95 51.26 52.45
  Q 25.62 55.30 0.00 59.13"
/>
<path stroke="#9fcb92" vector-effect="non-scaling-stroke" d="
  M 900.00 143.03
  Q 884.61 150.92 869.02 158.80
  C 841.92 172.50 814.63 182.95 784.50 187.64
  C 741.32 194.36 696.96 177.12 658.25 167.56
  C 619.24 157.93 579.33 155.05 539.25 156.08
  C 509.13 156.85 479.06 158.96 449.00 161.03
  Q 430.35 162.32 397.49 163.57
  C 350.10 165.37 305.99 163.80 260.50 153.75
  C 227.18 146.39 195.00 134.40 161.74 126.53
  Q 120.69 116.82 79.04 121.57
  C 61.26 123.60 42.94 126.66 25.26 131.02
  Q 12.70 134.12 0.00 136.95"
/>
<path stroke="#92c085" vector-effect="non-scaling-stroke" d="
  M 900.00 286.75
  Q 875.05 302.58 863.94 308.68
  C 829.75 327.46 793.22 343.78 752.97 337.40
  C 711.78 330.87 673.89 309.06 633.23 305.95
  Q 625.57 305.37 613.25 305.62
  Q 596.24 305.98 587.24 307.07
  Q 564.19 309.88 541.00 310.43
  C 521.49 310.90 502.93 308.16 484.50 302.06
  Q 481.35 301.01 478.18 300.06
  C 469.01 297.29 459.96 293.51 450.98 290.15
  Q 450.95 290.14 434.86 283.89
  Q 418.08 277.39 400.73 272.55
  C 377.77 266.15 353.65 265.04 329.73 265.99
  C 300.41 267.15 271.42 268.63 241.97 262.32
  C 211.74 255.85 182.91 243.92 152.25 238.97
  C 96.19 229.90 47.94 256.33 0.00 281.00"
/>
<path stroke="#84af78" vector-effect="non-scaling-stroke" d="
  M 900.00 329.33
  Q 884.30 342.69 869.43 355.65
  Q 851.77 371.03 841.17 378.66
  C 815.63 397.03 786.10 413.76 753.51 413.19
  C 736.38 412.90 720.97 409.17 704.25 403.98
  Q 693.14 400.52 662.51 389.77
  Q 644.65 383.50 621.07 379.46
  C 589.48 374.04 558.92 373.82 529.50 370.17
  Q 503.88 366.99 476.24 360.08
  C 451.29 353.84 425.00 346.61 400.86 342.88
  C 385.30 340.48 369.01 339.65 352.00 339.80
  C 329.85 339.99 307.98 340.68 285.85 338.84
  C 252.48 336.07 226.60 323.95 193.35 309.35
  Q 172.87 300.36 152.74 295.31
  C 108.40 284.18 66.01 304.42 29.70 327.71
  Q 14.59 337.39 0.00 347.13"
/>
<path stroke="#769e6b" vector-effect="non-scaling-stroke" d="
  M 900.00 533.00
  C 852.01 537.44 804.19 541.95 756.00 538.04
  C 720.51 535.17 684.01 529.32 647.99 524.80
  Q 584.89 516.87 521.36 518.77
  C 486.27 519.82 450.91 524.10 416.25 523.50
  Q 394.51 523.13 370.30 518.08
  Q 346.95 513.21 336.49 510.00
  Q 287.05 494.82 272.82 490.92
  C 216.82 475.55 159.30 473.34 101.99 482.15
  Q 74.26 486.42 54.00 490.70
  Q 38.41 493.99 0.00 502.96"
/>
</g>
<path fill="#b9d9af" d="
  M 0.00 0.00
  L 900.00 0.00
  L 900.00 83.16
  Q 866.15 81.36 832.25 79.88
  Q 810.57 78.93 762.70 74.34
  Q 753.98 73.50 742.81 72.26
  Q 693.26 66.74 676.25 65.63
  Q 651.59 64.01 623.75 63.85
  C 622.98 63.85 622.31 64.08 621.74 64.08
  Q 605.25 64.09 585.50 65.12
  Q 547.62 67.11 534.76 67.96
  Q 528.15 68.40 512.25 69.08
  Q 466.51 71.05 430.62 71.37
  Q 430.42 71.59 429.75 71.59
  C 384.99 71.55 336.82 74.33 290.25 72.59
  C 268.81 71.78 247.65 69.18 226.53 65.45
  Q 203.11 61.30 179.71 57.08
  Q 157.63 53.09 144.50 51.61
  C 113.36 48.12 82.67 48.95 51.26 52.45
  Q 25.62 55.30 0.00 59.13
  L 0.00 0.00
  Z"
/>
<path fill="#a4ce98" d="
  M 900.00 83.16
  L 900.00 143.03
  Q 884.61 150.92 869.02 158.80
  C 841.92 172.50 814.63 182.95 784.50 187.64
  C 741.32 194.36 696.96 177.12 658.25 167.56
  C 619.24 157.93 579.33 155.05 539.25 156.08
  C 509.13 156.85 479.06 158.96 449.00 161.03
  Q 430.35 162.32 397.49 163.57
  C 350.10 165.37 305.99 163.80 260.50 153.75
  C 227.18 146.39 195.00 134.40 161.74 126.53
  Q 120.69 116.82 79.04 121.57
  C 61.26 123.60 42.94 126.66 25.26 131.02
  Q 12.70 134.12 0.00 136.95
  L 0.00 59.13
  Q 25.62 55.30 51.26 52.45
  C 82.67 48.95 113.36 48.12 144.50 51.61
  Q 157.63 53.09 179.71 57.08
  Q 203.11 61.30 226.53 65.45
  C 247.65 69.18 268.81 71.78 290.25 72.59
  C 336.82 74.33 384.99 71.55 429.75 71.59
  Q 430.42 71.59 430.62 71.37
  Q 466.51 71.05 512.25 69.08
  Q 528.15 68.40 534.76 67.96
  Q 547.62 67.11 585.50 65.12
  Q 605.25 64.09 621.74 64.08
  C 622.31 64.08 622.98 63.85 623.75 63.85
  Q 651.59 64.01 676.25 65.63
  Q 693.26 66.74 742.81 72.26
  Q 753.98 73.50 762.70 74.34
  Q 810.57 78.93 832.25 79.88
  Q 866.15 81.36 900.00 83.16
  Z"
/>
<path fill="#99c88c" d="
  M 900.00 143.03
  L 900.00 286.75
  Q 875.05 302.58 863.94 308.68
  C 829.75 327.46 793.22 343.78 752.97 337.40
  C 711.78 330.87 673.89 309.06 633.23 305.95
  Q 625.57 305.37 613.25 305.62
  Q 596.24 305.98 587.24 307.07
  Q 564.19 309.88 541.00 310.43
  C 521.49 310.90 502.93 308.16 484.50 302.06
  Q 481.35 301.01 478.18 300.06
  C 469.01 297.29 459.96 293.51 450.98 290.15
  Q 450.95 290.14 434.86 283.89
  Q 418.08 277.39 400.73 272.55
  C 377.77 266.15 353.65 265.04 329.73 265.99
  C 300.41 267.15 271.42 268.63 241.97 262.32
  C 211.74 255.85 182.91 243.92 152.25 238.97
  C 96.19 229.90 47.94 256.33 0.00 281.00
  L 0.00 136.95
  Q 12.70 134.12 25.26 131.02
  C 42.94 126.66 61.26 123.60 79.04 121.57
  Q 120.69 116.82 161.74 126.53
  C 195.00 134.40 227.18 146.39 260.50 153.75
  C 305.99 163.80 350.10 165.37 397.49 163.57
  Q 430.35 162.32 449.00 161.03
  C 479.06 158.96 509.13 156.85 539.25 156.08
  C 579.33 155.05 619.24 157.93 658.25 167.56
  C 696.96 177.12 741.32 194.36 784.50 187.64
  C 814.63 182.95 841.92 172.50 869.02 158.80
  Q 884.61 150.92 900.00 143.03
  Z"
/>
<path fill="#8bb77e" d="
  M 900.00 286.75
  L 900.00 329.33
  Q 884.30 342.69 869.43 355.65
  Q 851.77 371.03 841.17 378.66
  C 815.63 397.03 786.10 413.76 753.51 413.19
  C 736.38 412.90 720.97 409.17 704.25 403.98
  Q 693.14 400.52 662.51 389.77
  Q 644.65 383.50 621.07 379.46
  C 589.48 374.04 558.92 373.82 529.50 370.17
  Q 503.88 366.99 476.24 360.08
  C 451.29 353.84 425.00 346.61 400.86 342.88
  C 385.30 340.48 369.01 339.65 352.00 339.80
  C 329.85 339.99 307.98 340.68 285.85 338.84
  C 252.48 336.07 226.60 323.95 193.35 309.35
  Q 172.87 300.36 152.74 295.31
  C 108.40 284.18 66.01 304.42 29.70 327.71
  Q 14.59 337.39 0.00 347.13
  L 0.00 281.00
  C 47.94 256.33 96.19 229.90 152.25 238.97
  C 182.91 243.92 211.74 255.85 241.97 262.32
  C 271.42 268.63 300.41 267.15 329.73 265.99
  C 353.65 265.04 377.77 266.15 400.73 272.55
  Q 418.08 277.39 434.86 283.89
  Q 450.95 290.14 450.98 290.15
  C 459.96 293.51 469.01 297.29 478.18 300.06
  Q 481.35 301.01 484.50 302.06
  C 502.93 308.16 521.49 310.90 541.00 310.43
  Q 564.19 309.88 587.24 307.07
  Q 596.24 305.98 613.25 305.62
  Q 625.57 305.37 633.23 305.95
  C 673.89 309.06 711.78 330.87 752.97 337.40
  C 793.22 343.78 829.75 327.46 863.94 308.68
  Q 875.05 302.58 900.00 286.75
  Z"
/>
<path fill="#7da671" d="
  M 900.00 329.33
  L 900.00 533.00
  C 852.01 537.44 804.19 541.95 756.00 538.04
  C 720.51 535.17 684.01 529.32 647.99 524.80
  Q 584.89 516.87 521.36 518.77
  C 486.27 519.82 450.91 524.10 416.25 523.50
  Q 394.51 523.13 370.30 518.08
  Q 346.95 513.21 336.49 510.00
  Q 287.05 494.82 272.82 490.92
  C 216.82 475.55 159.30 473.34 101.99 482.15
  Q 74.26 486.42 54.00 490.70
  Q 38.41 493.99 0.00 502.96
  L 0.00 347.13
  Q 14.59 337.39 29.70 327.71
  C 66.01 304.42 108.40 284.18 152.74 295.31
  Q 172.87 300.36 193.35 309.35
  C 226.60 323.95 252.48 336.07 285.85 338.84
  C 307.98 340.68 329.85 339.99 352.00 339.80
  C 369.01 339.65 385.30 340.48 400.86 342.88
  C 425.00 346.61 451.29 353.84 476.24 360.08
  Q 503.88 366.99 529.50 370.17
  C 558.92 373.82 589.48 374.04 621.07 379.46
  Q 644.65 383.50 662.51 389.77
  Q 693.14 400.52 704.25 403.98
  C 720.97 409.17 736.38 412.90 753.51 413.19
  C 786.10 413.76 815.63 397.03 841.17 378.66
  Q 851.77 371.03 869.43 355.65
  Q 884.30 342.69 900.00 329.33
  Z"
/>
<path fill="#6f9564" d="
  M 900.00 533.00
  L 900.00 600.00
  L 0.00 600.00
  L 0.00 502.96
  Q 38.41 493.99 54.00 490.70
  Q 74.26 486.42 101.99 482.15
  C 159.30 473.34 216.82 475.55 272.82 490.92
  Q 287.05 494.82 336.49 510.00
  Q 346.95 513.21 370.30 518.08
  Q 394.51 523.13 416.25 523.50
  C 450.91 524.10 486.27 519.82 521.36 518.77
  Q 584.89 516.87 647.99 524.80
  C 684.01 529.32 720.51 535.17 756.00 538.04
  C 804.19 541.95 852.01 537.44 900.00 533.00
  Z"
/>
</svg>
